%TF.GenerationSoftware,KiCad,Pcbnew,8.0.2*%
%TF.CreationDate,2024-05-06T17:24:37+02:00*%
%TF.ProjectId,PCB,5043422e-6b69-4636-9164-5f7063625858,rev?*%
%TF.SameCoordinates,Original*%
%TF.FileFunction,Copper,L2,Bot*%
%TF.FilePolarity,Positive*%
%FSLAX46Y46*%
G04 Gerber Fmt 4.6, Leading zero omitted, Abs format (unit mm)*
G04 Created by KiCad (PCBNEW 8.0.2) date 2024-05-06 17:24:37*
%MOMM*%
%LPD*%
G01*
G04 APERTURE LIST*
%TA.AperFunction,ComponentPad*%
%ADD10C,5.400000*%
%TD*%
%TA.AperFunction,ComponentPad*%
%ADD11C,2.000000*%
%TD*%
%TA.AperFunction,ComponentPad*%
%ADD12C,1.600000*%
%TD*%
%TA.AperFunction,ComponentPad*%
%ADD13O,1.600000X1.600000*%
%TD*%
%TA.AperFunction,ComponentPad*%
%ADD14R,1.700000X1.700000*%
%TD*%
%TA.AperFunction,ComponentPad*%
%ADD15O,1.700000X1.700000*%
%TD*%
%TA.AperFunction,ComponentPad*%
%ADD16R,1.800000X1.800000*%
%TD*%
%TA.AperFunction,ComponentPad*%
%ADD17C,1.800000*%
%TD*%
%TA.AperFunction,Conductor*%
%ADD18C,1.000000*%
%TD*%
G04 APERTURE END LIST*
D10*
%TO.P,REF\u002A\u002A,1*%
%TO.N,N/C*%
X232245000Y-116040000D03*
%TD*%
%TO.P,REF\u002A\u002A,1*%
%TO.N,N/C*%
X161125000Y-116675000D03*
%TD*%
%TO.P,REF\u002A\u002A,1*%
%TO.N,N/C*%
X232245000Y-53810000D03*
%TD*%
%TO.P,REF\u002A\u002A,1*%
%TO.N,N/C*%
X161125000Y-53810000D03*
%TD*%
D11*
%TO.P,SW2,1,1*%
%TO.N,unconnected-(SW2-Pad1)*%
X220243743Y-94550000D03*
%TO.P,SW2,2,2*%
%TO.N,unconnected-(SW2-Pad2)*%
X220243743Y-89550000D03*
%TO.P,SW2,3,3*%
%TO.N,GND*%
X215243743Y-94550000D03*
%TO.P,SW2,4,4*%
%TO.N,/OFF*%
X215243743Y-89550000D03*
%TD*%
%TO.P,SW1,1,1*%
%TO.N,unconnected-(SW1-Pad1)*%
X220243743Y-75550000D03*
%TO.P,SW1,2,2*%
%TO.N,unconnected-(SW1-Pad2)*%
X220243743Y-70550000D03*
%TO.P,SW1,3,3*%
%TO.N,GND*%
X215243743Y-75550000D03*
%TO.P,SW1,4,4*%
%TO.N,/ON*%
X215243743Y-70550000D03*
%TD*%
D12*
%TO.P,R9,1*%
%TO.N,Net-(D2-K)*%
X183350000Y-109690000D03*
D13*
%TO.P,R9,2*%
%TO.N,/BLEU*%
X193510000Y-109690000D03*
%TD*%
%TO.P,R8,2*%
%TO.N,/Jaune*%
X208840000Y-105880000D03*
D12*
%TO.P,R8,1*%
%TO.N,Net-(D1-K)*%
X219000000Y-105880000D03*
%TD*%
%TO.P,R7,1*%
%TO.N,/OFF*%
X219920000Y-83000000D03*
D13*
%TO.P,R7,2*%
%TO.N,+3.3V*%
X230080000Y-83000000D03*
%TD*%
D12*
%TO.P,R6,1*%
%TO.N,/ON*%
X219920000Y-63000000D03*
D13*
%TO.P,R6,2*%
%TO.N,+3.3V*%
X230080000Y-63000000D03*
%TD*%
%TO.P,R5,2*%
%TO.N,GND*%
X168920000Y-63000000D03*
D12*
%TO.P,R5,1*%
%TO.N,Net-(J1-Pin_6)*%
X179080000Y-63000000D03*
%TD*%
D13*
%TO.P,R4,2*%
%TO.N,GND*%
X168920000Y-73000000D03*
D12*
%TO.P,R4,1*%
%TO.N,Net-(J1-Pin_5)*%
X179080000Y-73000000D03*
%TD*%
D13*
%TO.P,R3,2*%
%TO.N,GND*%
X168920000Y-82000000D03*
D12*
%TO.P,R3,1*%
%TO.N,Net-(J1-Pin_4)*%
X179080000Y-82000000D03*
%TD*%
D13*
%TO.P,R2,2*%
%TO.N,GND*%
X168920000Y-91000000D03*
D12*
%TO.P,R2,1*%
%TO.N,Net-(J1-Pin_3)*%
X179080000Y-91000000D03*
%TD*%
%TO.P,R1,1*%
%TO.N,Net-(J1-Pin_2)*%
X179080000Y-100000000D03*
D13*
%TO.P,R1,2*%
%TO.N,GND*%
X168920000Y-100000000D03*
%TD*%
D14*
%TO.P,J1,1,Pin_1*%
%TO.N,+3.3V*%
X187000000Y-89700000D03*
D15*
%TO.P,J1,2,Pin_2*%
%TO.N,Net-(J1-Pin_2)*%
X187000000Y-87160000D03*
%TO.P,J1,3,Pin_3*%
%TO.N,Net-(J1-Pin_3)*%
X187000000Y-84620000D03*
%TO.P,J1,4,Pin_4*%
%TO.N,Net-(J1-Pin_4)*%
X187000000Y-82080000D03*
%TO.P,J1,5,Pin_5*%
%TO.N,Net-(J1-Pin_5)*%
X187000000Y-79540000D03*
%TO.P,J1,6,Pin_6*%
%TO.N,Net-(J1-Pin_6)*%
X187000000Y-77000000D03*
%TD*%
D16*
%TO.P,D2,1,K*%
%TO.N,Net-(D2-K)*%
X172555000Y-109690000D03*
D17*
%TO.P,D2,2,A*%
%TO.N,GND*%
X170015000Y-109690000D03*
%TD*%
%TO.P,D1,2,A*%
%TO.N,GND*%
X229065000Y-105880000D03*
D16*
%TO.P,D1,1,K*%
%TO.N,Net-(D1-K)*%
X226525000Y-105880000D03*
%TD*%
D15*
%TO.P,J2,40,Pin_40*%
%TO.N,/BLEU*%
X199000000Y-109700000D03*
%TO.P,J2,39,Pin_39*%
%TO.N,GND*%
X201540000Y-109700000D03*
%TO.P,J2,38,Pin_38*%
%TO.N,unconnected-(J2-Pin_38-Pad38)*%
X199000000Y-107160000D03*
%TO.P,J2,37,Pin_37*%
%TO.N,unconnected-(J2-Pin_37-Pad37)*%
X201540000Y-107160000D03*
%TO.P,J2,36,Pin_36*%
%TO.N,unconnected-(J2-Pin_36-Pad36)*%
X199000000Y-104620000D03*
%TO.P,J2,35,Pin_35*%
%TO.N,unconnected-(J2-Pin_35-Pad35)*%
X201540000Y-104620000D03*
%TO.P,J2,34,Pin_34*%
%TO.N,GND*%
X199000000Y-102080000D03*
%TO.P,J2,33,Pin_33*%
%TO.N,unconnected-(J2-Pin_33-Pad33)*%
X201540000Y-102080000D03*
%TO.P,J2,32,Pin_32*%
%TO.N,unconnected-(J2-Pin_32-Pad32)*%
X199000000Y-99540000D03*
%TO.P,J2,31,Pin_31*%
%TO.N,unconnected-(J2-Pin_31-Pad31)*%
X201540000Y-99540000D03*
%TO.P,J2,30,Pin_30*%
%TO.N,GND*%
X199000000Y-97000000D03*
%TO.P,J2,29,Pin_29*%
%TO.N,unconnected-(J2-Pin_29-Pad29)*%
X201540000Y-97000000D03*
%TO.P,J2,28,Pin_28*%
%TO.N,unconnected-(J2-Pin_28-Pad28)*%
X199000000Y-94460000D03*
%TO.P,J2,27,Pin_27*%
%TO.N,unconnected-(J2-Pin_27-Pad27)*%
X201540000Y-94460000D03*
%TO.P,J2,26,Pin_26*%
%TO.N,unconnected-(J2-Pin_26-Pad26)*%
X199000000Y-91920000D03*
%TO.P,J2,25,Pin_25*%
%TO.N,GND*%
X201540000Y-91920000D03*
%TO.P,J2,24,Pin_24*%
%TO.N,unconnected-(J2-Pin_24-Pad24)*%
X199000000Y-89380000D03*
%TO.P,J2,23,Pin_23*%
%TO.N,unconnected-(J2-Pin_23-Pad23)*%
X201540000Y-89380000D03*
%TO.P,J2,22,Pin_22*%
%TO.N,Net-(J1-Pin_2)*%
X199000000Y-86840000D03*
%TO.P,J2,21,Pin_21*%
%TO.N,unconnected-(J2-Pin_21-Pad21)*%
X201540000Y-86840000D03*
%TO.P,J2,20,Pin_20*%
%TO.N,GND*%
X199000000Y-84300000D03*
%TO.P,J2,19,Pin_19*%
%TO.N,unconnected-(J2-Pin_19-Pad19)*%
X201540000Y-84300000D03*
%TO.P,J2,18,Pin_18*%
%TO.N,Net-(J1-Pin_3)*%
X199000000Y-81760000D03*
%TO.P,J2,17,Pin_17*%
%TO.N,unconnected-(J2-Pin_17-Pad17)*%
X201540000Y-81760000D03*
%TO.P,J2,16,Pin_16*%
%TO.N,Net-(J1-Pin_4)*%
X199000000Y-79220000D03*
%TO.P,J2,15,Pin_15*%
%TO.N,unconnected-(J2-Pin_15-Pad15)*%
X201540000Y-79220000D03*
%TO.P,J2,14,Pin_14*%
%TO.N,GND*%
X199000000Y-76680000D03*
%TO.P,J2,13,Pin_13*%
%TO.N,unconnected-(J2-Pin_13-Pad13)*%
X201540000Y-76680000D03*
%TO.P,J2,12,Pin_12*%
%TO.N,unconnected-(J2-Pin_12-Pad12)*%
X199000000Y-74140000D03*
%TO.P,J2,11,Pin_11*%
%TO.N,/Jaune*%
X201540000Y-74140000D03*
%TO.P,J2,10,Pin_10*%
%TO.N,Net-(J1-Pin_5)*%
X199000000Y-71600000D03*
%TO.P,J2,9,Pin_9*%
%TO.N,GND*%
X201540000Y-71600000D03*
%TO.P,J2,8,Pin_8*%
%TO.N,Net-(J1-Pin_6)*%
X199000000Y-69060000D03*
%TO.P,J2,7,Pin_7*%
%TO.N,unconnected-(J2-Pin_7-Pad7)*%
X201540000Y-69060000D03*
%TO.P,J2,6,Pin_6*%
%TO.N,GND*%
X199000000Y-66520000D03*
%TO.P,J2,5,Pin_5*%
%TO.N,/OFF*%
X201540000Y-66520000D03*
%TO.P,J2,4,Pin_4*%
%TO.N,unconnected-(J2-Pin_4-Pad4)*%
X199000000Y-63980000D03*
%TO.P,J2,3,Pin_3*%
%TO.N,/ON*%
X201540000Y-63980000D03*
%TO.P,J2,2,Pin_2*%
%TO.N,unconnected-(J2-Pin_2-Pad2)*%
X199000000Y-61440000D03*
D14*
%TO.P,J2,1,Pin_1*%
%TO.N,+3.3V*%
X201540000Y-61440000D03*
%TD*%
D18*
%TO.N,Net-(D1-K)*%
X219000000Y-105880000D02*
X226525000Y-105880000D01*
%TO.N,/Jaune*%
X207000000Y-76000000D02*
X207000000Y-99685000D01*
X205000000Y-74000000D02*
X207000000Y-76000000D01*
X207000000Y-99685000D02*
X208840000Y-101525000D01*
X208840000Y-101525000D02*
X208840000Y-105880000D01*
X204860000Y-74140000D02*
X205000000Y-74000000D01*
X201540000Y-74140000D02*
X204860000Y-74140000D01*
%TO.N,Net-(D2-K)*%
X172555000Y-109690000D02*
X183350000Y-109690000D01*
%TO.N,/BLEU*%
X198990000Y-109690000D02*
X199000000Y-109700000D01*
X193510000Y-109690000D02*
X198990000Y-109690000D01*
%TO.N,Net-(J1-Pin_5)*%
X193000000Y-73000000D02*
X194400000Y-71600000D01*
X194400000Y-71600000D02*
X199000000Y-71600000D01*
X193000000Y-77000000D02*
X193000000Y-73000000D01*
X190460000Y-79540000D02*
X193000000Y-77000000D01*
X187000000Y-79540000D02*
X190460000Y-79540000D01*
%TO.N,Net-(J1-Pin_4)*%
X193780000Y-79220000D02*
X199000000Y-79220000D01*
X190920000Y-82080000D02*
X193780000Y-79220000D01*
X187000000Y-82080000D02*
X190920000Y-82080000D01*
%TO.N,Net-(J1-Pin_3)*%
X195240000Y-81760000D02*
X199000000Y-81760000D01*
X192380000Y-84620000D02*
X195240000Y-81760000D01*
X187000000Y-84620000D02*
X192380000Y-84620000D01*
%TO.N,Net-(J1-Pin_2)*%
X192160000Y-86840000D02*
X199000000Y-86840000D01*
X191840000Y-87160000D02*
X192160000Y-86840000D01*
X187000000Y-87160000D02*
X191840000Y-87160000D01*
%TO.N,Net-(J1-Pin_6)*%
X184000000Y-77000000D02*
X187000000Y-77000000D01*
X183000000Y-76000000D02*
X184000000Y-77000000D01*
X179080000Y-67080000D02*
X183000000Y-71000000D01*
X179080000Y-63000000D02*
X179080000Y-67080000D01*
X183000000Y-71000000D02*
X183000000Y-76000000D01*
%TO.N,Net-(J1-Pin_5)*%
X182540000Y-79540000D02*
X187000000Y-79540000D01*
X179080000Y-76080000D02*
X182540000Y-79540000D01*
X179080000Y-73000000D02*
X179080000Y-76080000D01*
%TO.N,Net-(J1-Pin_2)*%
X184840000Y-87160000D02*
X187000000Y-87160000D01*
X183000000Y-89000000D02*
X184840000Y-87160000D01*
X179080000Y-95920000D02*
X183000000Y-92000000D01*
X183000000Y-92000000D02*
X183000000Y-89000000D01*
X179080000Y-100000000D02*
X179080000Y-95920000D01*
%TO.N,Net-(J1-Pin_3)*%
X182380000Y-84620000D02*
X187000000Y-84620000D01*
X179000000Y-88000000D02*
X182380000Y-84620000D01*
X179080000Y-88080000D02*
X179000000Y-88000000D01*
X179080000Y-91000000D02*
X179080000Y-88080000D01*
%TO.N,Net-(J1-Pin_4)*%
X186920000Y-82000000D02*
X187000000Y-82080000D01*
X179080000Y-82000000D02*
X186920000Y-82000000D01*
%TO.N,Net-(J1-Pin_6)*%
X192940000Y-69060000D02*
X187000000Y-75000000D01*
X199000000Y-69060000D02*
X192940000Y-69060000D01*
X187000000Y-77000000D02*
X187000000Y-75000000D01*
%TO.N,/OFF*%
X213550000Y-89550000D02*
X215243743Y-89550000D01*
X210000000Y-73000000D02*
X210000000Y-86000000D01*
X210000000Y-86000000D02*
X213550000Y-89550000D01*
X203520000Y-66520000D02*
X210000000Y-73000000D01*
X201540000Y-66520000D02*
X203520000Y-66520000D01*
X215243743Y-85243743D02*
X215243743Y-89550000D01*
X217000000Y-83000000D02*
X215000000Y-85000000D01*
X215000000Y-85000000D02*
X215243743Y-85243743D01*
X219920000Y-83000000D02*
X217000000Y-83000000D01*
%TO.N,/ON*%
X211570000Y-70550000D02*
X215243743Y-70550000D01*
X210000000Y-68980000D02*
X211570000Y-70550000D01*
X201540000Y-63980000D02*
X207980000Y-63980000D01*
X207980000Y-63980000D02*
X210000000Y-66000000D01*
X210000000Y-66000000D02*
X210000000Y-68980000D01*
%TO.N,+3.3V*%
X214560000Y-61440000D02*
X219000000Y-57000000D01*
X201540000Y-61440000D02*
X214560000Y-61440000D01*
X227000000Y-57000000D02*
X219000000Y-57000000D01*
X187000000Y-103000000D02*
X187000000Y-89700000D01*
X162000000Y-105000000D02*
X185000000Y-105000000D01*
X185000000Y-105000000D02*
X187000000Y-103000000D01*
X160000000Y-103000000D02*
X162000000Y-105000000D01*
X165000000Y-57000000D02*
X160000000Y-62000000D01*
X201540000Y-58540000D02*
X200000000Y-57000000D01*
X160000000Y-62000000D02*
X160000000Y-103000000D01*
X201540000Y-61440000D02*
X201540000Y-58540000D01*
X200000000Y-57000000D02*
X165000000Y-57000000D01*
X230080000Y-63000000D02*
X230080000Y-60080000D01*
X230080000Y-60080000D02*
X227000000Y-57000000D01*
X230080000Y-63000000D02*
X230080000Y-83000000D01*
%TO.N,/ON*%
X215243743Y-67676257D02*
X219920000Y-63000000D01*
X215243743Y-70550000D02*
X215243743Y-67676257D01*
%TD*%
%TA.AperFunction,Conductor*%
%TO.N,GND*%
G36*
X199601257Y-58020185D02*
G01*
X199621899Y-58036819D01*
X200503181Y-58918101D01*
X200536666Y-58979424D01*
X200539500Y-59005782D01*
X200539500Y-60025858D01*
X200519815Y-60092897D01*
X200467011Y-60138652D01*
X200458847Y-60142034D01*
X200447669Y-60146204D01*
X200447664Y-60146206D01*
X200332455Y-60232452D01*
X200332452Y-60232455D01*
X200246206Y-60347664D01*
X200246203Y-60347669D01*
X200197189Y-60479083D01*
X200155317Y-60535016D01*
X200089853Y-60559433D01*
X200021580Y-60544581D01*
X199993326Y-60523430D01*
X199871402Y-60401506D01*
X199871395Y-60401501D01*
X199677834Y-60265967D01*
X199677830Y-60265965D01*
X199677828Y-60265964D01*
X199463663Y-60166097D01*
X199463659Y-60166096D01*
X199463655Y-60166094D01*
X199235413Y-60104938D01*
X199235403Y-60104936D01*
X199000001Y-60084341D01*
X198999999Y-60084341D01*
X198764596Y-60104936D01*
X198764586Y-60104938D01*
X198536344Y-60166094D01*
X198536335Y-60166098D01*
X198322171Y-60265964D01*
X198322169Y-60265965D01*
X198128597Y-60401505D01*
X197961505Y-60568597D01*
X197825965Y-60762169D01*
X197825964Y-60762171D01*
X197726098Y-60976335D01*
X197726094Y-60976344D01*
X197664938Y-61204586D01*
X197664936Y-61204596D01*
X197644341Y-61439999D01*
X197644341Y-61440000D01*
X197664936Y-61675403D01*
X197664938Y-61675413D01*
X197726094Y-61903655D01*
X197726096Y-61903659D01*
X197726097Y-61903663D01*
X197807288Y-62077778D01*
X197825965Y-62117830D01*
X197825967Y-62117834D01*
X197961501Y-62311395D01*
X197961506Y-62311402D01*
X198128597Y-62478493D01*
X198128603Y-62478498D01*
X198314158Y-62608425D01*
X198357783Y-62663002D01*
X198364977Y-62732500D01*
X198333454Y-62794855D01*
X198314158Y-62811575D01*
X198128597Y-62941505D01*
X197961505Y-63108597D01*
X197825965Y-63302169D01*
X197825964Y-63302171D01*
X197726098Y-63516335D01*
X197726094Y-63516344D01*
X197664938Y-63744586D01*
X197664936Y-63744596D01*
X197644341Y-63979999D01*
X197644341Y-63980000D01*
X197664936Y-64215403D01*
X197664938Y-64215413D01*
X197726094Y-64443655D01*
X197726096Y-64443659D01*
X197726097Y-64443663D01*
X197730000Y-64452032D01*
X197825965Y-64657830D01*
X197825967Y-64657834D01*
X197934281Y-64812521D01*
X197961501Y-64851396D01*
X197961506Y-64851402D01*
X198128597Y-65018493D01*
X198128603Y-65018498D01*
X198314594Y-65148730D01*
X198358219Y-65203307D01*
X198365413Y-65272805D01*
X198333890Y-65335160D01*
X198314595Y-65351880D01*
X198128922Y-65481890D01*
X198128920Y-65481891D01*
X197961891Y-65648920D01*
X197961886Y-65648926D01*
X197826400Y-65842420D01*
X197826399Y-65842422D01*
X197726570Y-66056507D01*
X197726567Y-66056513D01*
X197669364Y-66269999D01*
X197669364Y-66270000D01*
X198566988Y-66270000D01*
X198534075Y-66327007D01*
X198500000Y-66454174D01*
X198500000Y-66585826D01*
X198534075Y-66712993D01*
X198566988Y-66770000D01*
X197669364Y-66770000D01*
X197726567Y-66983486D01*
X197726570Y-66983492D01*
X197826399Y-67197578D01*
X197961894Y-67391082D01*
X198128917Y-67558105D01*
X198314595Y-67688119D01*
X198358219Y-67742696D01*
X198365412Y-67812195D01*
X198333890Y-67874549D01*
X198314595Y-67891269D01*
X198128594Y-68021508D01*
X198126922Y-68023181D01*
X198126000Y-68023684D01*
X198124449Y-68024986D01*
X198124187Y-68024674D01*
X198065599Y-68056666D01*
X198039241Y-68059500D01*
X193044675Y-68059500D01*
X193044655Y-68059499D01*
X193038541Y-68059499D01*
X192841460Y-68059499D01*
X192841457Y-68059499D01*
X192648172Y-68097946D01*
X192648164Y-68097948D01*
X192466088Y-68173366D01*
X192466079Y-68173371D01*
X192302219Y-68282859D01*
X192302215Y-68282862D01*
X187835080Y-72749999D01*
X186362220Y-74222859D01*
X186362218Y-74222861D01*
X186306208Y-74278871D01*
X186222859Y-74362219D01*
X186113371Y-74526079D01*
X186113364Y-74526092D01*
X186037950Y-74708160D01*
X186037947Y-74708170D01*
X185999500Y-74901456D01*
X185999500Y-75875500D01*
X185979815Y-75942539D01*
X185927011Y-75988294D01*
X185875500Y-75999500D01*
X184465783Y-75999500D01*
X184398744Y-75979815D01*
X184378102Y-75963181D01*
X184036819Y-75621898D01*
X184003334Y-75560575D01*
X184000500Y-75534217D01*
X184000500Y-70901456D01*
X183962052Y-70708170D01*
X183962051Y-70708169D01*
X183962051Y-70708165D01*
X183902616Y-70564674D01*
X183886635Y-70526092D01*
X183886628Y-70526079D01*
X183777139Y-70362218D01*
X183777136Y-70362214D01*
X183634686Y-70219764D01*
X183634655Y-70219735D01*
X180116819Y-66701899D01*
X180083334Y-66640576D01*
X180080500Y-66614218D01*
X180080500Y-63877588D01*
X180100185Y-63810549D01*
X180102925Y-63806465D01*
X180210568Y-63652734D01*
X180306739Y-63446496D01*
X180365635Y-63226692D01*
X180385468Y-63000000D01*
X180385356Y-62998724D01*
X180377766Y-62911967D01*
X180365635Y-62773308D01*
X180306739Y-62553504D01*
X180210568Y-62347266D01*
X180080047Y-62160861D01*
X180080045Y-62160858D01*
X179919141Y-61999954D01*
X179732734Y-61869432D01*
X179732732Y-61869431D01*
X179526497Y-61773261D01*
X179526488Y-61773258D01*
X179306697Y-61714366D01*
X179306693Y-61714365D01*
X179306692Y-61714365D01*
X179306691Y-61714364D01*
X179306686Y-61714364D01*
X179080002Y-61694532D01*
X179079998Y-61694532D01*
X178853313Y-61714364D01*
X178853302Y-61714366D01*
X178633511Y-61773258D01*
X178633502Y-61773261D01*
X178427267Y-61869431D01*
X178427265Y-61869432D01*
X178240858Y-61999954D01*
X178079954Y-62160858D01*
X177949432Y-62347265D01*
X177949431Y-62347267D01*
X177853261Y-62553502D01*
X177853258Y-62553511D01*
X177794366Y-62773302D01*
X177794364Y-62773313D01*
X177774532Y-62999998D01*
X177774532Y-63000001D01*
X177794364Y-63226686D01*
X177794366Y-63226697D01*
X177853258Y-63446488D01*
X177853261Y-63446497D01*
X177949431Y-63652732D01*
X177949432Y-63652734D01*
X178057075Y-63806465D01*
X178079402Y-63872671D01*
X178079500Y-63877588D01*
X178079500Y-67178544D01*
X178117946Y-67371828D01*
X178117948Y-67371832D01*
X178117949Y-67371836D01*
X178126053Y-67391401D01*
X178193364Y-67553907D01*
X178193371Y-67553920D01*
X178302860Y-67717781D01*
X178302863Y-67717785D01*
X178446537Y-67861459D01*
X178446559Y-67861479D01*
X181963181Y-71378101D01*
X181996666Y-71439424D01*
X181999500Y-71465782D01*
X181999500Y-76098541D01*
X181999500Y-76098543D01*
X181999499Y-76098543D01*
X182037947Y-76291829D01*
X182037950Y-76291839D01*
X182113364Y-76473907D01*
X182113371Y-76473920D01*
X182222859Y-76637780D01*
X182222860Y-76637781D01*
X182222861Y-76637782D01*
X182362218Y-76777139D01*
X182362219Y-76777139D01*
X182369286Y-76784206D01*
X182369285Y-76784206D01*
X182369289Y-76784209D01*
X183362215Y-77777137D01*
X183362219Y-77777140D01*
X183526079Y-77886628D01*
X183526085Y-77886631D01*
X183526086Y-77886632D01*
X183708165Y-77962052D01*
X183901455Y-78000500D01*
X183901458Y-78000501D01*
X183901460Y-78000501D01*
X184104655Y-78000501D01*
X184104675Y-78000500D01*
X186039242Y-78000500D01*
X186106281Y-78020185D01*
X186126923Y-78036819D01*
X186128597Y-78038493D01*
X186128603Y-78038498D01*
X186314158Y-78168425D01*
X186357783Y-78223002D01*
X186364977Y-78292500D01*
X186333454Y-78354855D01*
X186314158Y-78371575D01*
X186128597Y-78501505D01*
X186126922Y-78503181D01*
X186126000Y-78503684D01*
X186124449Y-78504986D01*
X186124187Y-78504674D01*
X186065599Y-78536666D01*
X186039241Y-78539500D01*
X183005782Y-78539500D01*
X182938743Y-78519815D01*
X182918101Y-78503181D01*
X180116819Y-75701899D01*
X180083334Y-75640576D01*
X180080500Y-75614218D01*
X180080500Y-73877588D01*
X180100185Y-73810549D01*
X180102925Y-73806465D01*
X180210568Y-73652734D01*
X180306739Y-73446496D01*
X180365635Y-73226692D01*
X180385468Y-73000000D01*
X180365635Y-72773308D01*
X180306739Y-72553504D01*
X180210568Y-72347266D01*
X180080047Y-72160861D01*
X180080045Y-72160858D01*
X179919141Y-71999954D01*
X179732734Y-71869432D01*
X179732732Y-71869431D01*
X179526497Y-71773261D01*
X179526488Y-71773258D01*
X179306697Y-71714366D01*
X179306693Y-71714365D01*
X179306692Y-71714365D01*
X179306691Y-71714364D01*
X179306686Y-71714364D01*
X179080002Y-71694532D01*
X179079998Y-71694532D01*
X178853313Y-71714364D01*
X178853302Y-71714366D01*
X178633511Y-71773258D01*
X178633502Y-71773261D01*
X178427267Y-71869431D01*
X178427265Y-71869432D01*
X178240858Y-71999954D01*
X178079954Y-72160858D01*
X177949432Y-72347265D01*
X177949431Y-72347267D01*
X177853261Y-72553502D01*
X177853258Y-72553511D01*
X177794366Y-72773302D01*
X177794364Y-72773313D01*
X177774532Y-72999998D01*
X177774532Y-73000001D01*
X177794364Y-73226686D01*
X177794366Y-73226697D01*
X177853258Y-73446488D01*
X177853261Y-73446497D01*
X177880531Y-73504977D01*
X177949432Y-73652734D01*
X177965957Y-73676335D01*
X178057075Y-73806465D01*
X178079402Y-73872671D01*
X178079500Y-73877588D01*
X178079500Y-76178541D01*
X178079500Y-76178543D01*
X178079499Y-76178543D01*
X178117947Y-76371829D01*
X178117950Y-76371839D01*
X178193364Y-76553907D01*
X178193371Y-76553920D01*
X178302860Y-76717781D01*
X178302863Y-76717785D01*
X178446537Y-76861459D01*
X178446559Y-76861479D01*
X181759735Y-80174655D01*
X181759764Y-80174686D01*
X181902214Y-80317136D01*
X181902218Y-80317139D01*
X182066079Y-80426628D01*
X182066092Y-80426635D01*
X182194833Y-80479961D01*
X182219070Y-80490000D01*
X182248164Y-80502051D01*
X182344812Y-80521275D01*
X182393135Y-80530887D01*
X182441458Y-80540500D01*
X182441459Y-80540500D01*
X182441460Y-80540500D01*
X182638540Y-80540500D01*
X186039242Y-80540500D01*
X186106281Y-80560185D01*
X186126923Y-80576819D01*
X186128597Y-80578493D01*
X186128603Y-80578498D01*
X186314158Y-80708425D01*
X186357783Y-80763002D01*
X186364977Y-80832500D01*
X186333454Y-80894855D01*
X186314158Y-80911575D01*
X186220614Y-80977075D01*
X186154410Y-80999402D01*
X186149492Y-80999500D01*
X179957588Y-80999500D01*
X179890549Y-80979815D01*
X179886465Y-80977075D01*
X179760107Y-80888599D01*
X179732734Y-80869432D01*
X179732732Y-80869431D01*
X179526497Y-80773261D01*
X179526488Y-80773258D01*
X179306697Y-80714366D01*
X179306693Y-80714365D01*
X179306692Y-80714365D01*
X179306691Y-80714364D01*
X179306686Y-80714364D01*
X179080002Y-80694532D01*
X179079998Y-80694532D01*
X178853313Y-80714364D01*
X178853302Y-80714366D01*
X178633511Y-80773258D01*
X178633502Y-80773261D01*
X178427267Y-80869431D01*
X178427265Y-80869432D01*
X178240858Y-80999954D01*
X178079954Y-81160858D01*
X177949432Y-81347265D01*
X177949431Y-81347267D01*
X177853261Y-81553502D01*
X177853258Y-81553511D01*
X177794366Y-81773302D01*
X177794364Y-81773313D01*
X177774532Y-81999998D01*
X177774532Y-82000001D01*
X177794364Y-82226686D01*
X177794366Y-82226697D01*
X177853258Y-82446488D01*
X177853261Y-82446497D01*
X177949431Y-82652732D01*
X177949432Y-82652734D01*
X178079954Y-82839141D01*
X178240858Y-83000045D01*
X178269301Y-83019961D01*
X178427266Y-83130568D01*
X178633504Y-83226739D01*
X178853308Y-83285635D01*
X179015230Y-83299801D01*
X179079998Y-83305468D01*
X179080000Y-83305468D01*
X179080002Y-83305468D01*
X179136673Y-83300509D01*
X179306692Y-83285635D01*
X179526496Y-83226739D01*
X179732734Y-83130568D01*
X179886465Y-83022924D01*
X179952671Y-83000598D01*
X179957588Y-83000500D01*
X185959242Y-83000500D01*
X186026281Y-83020185D01*
X186046923Y-83036819D01*
X186128597Y-83118493D01*
X186128603Y-83118498D01*
X186314158Y-83248425D01*
X186357783Y-83303002D01*
X186364977Y-83372500D01*
X186333454Y-83434855D01*
X186314158Y-83451575D01*
X186128597Y-83581505D01*
X186126922Y-83583181D01*
X186126000Y-83583684D01*
X186124449Y-83584986D01*
X186124187Y-83584674D01*
X186065599Y-83616666D01*
X186039241Y-83619500D01*
X182281457Y-83619500D01*
X182220189Y-83631687D01*
X182189555Y-83637781D01*
X182088167Y-83657947D01*
X182088159Y-83657950D01*
X182034834Y-83680037D01*
X182034834Y-83680038D01*
X181989315Y-83698892D01*
X181906089Y-83733366D01*
X181906079Y-83733371D01*
X181742219Y-83842859D01*
X181685178Y-83899901D01*
X181602861Y-83982218D01*
X181602858Y-83982221D01*
X178362219Y-87222861D01*
X178292539Y-87292541D01*
X178222859Y-87362220D01*
X178113372Y-87526079D01*
X178113367Y-87526089D01*
X178037949Y-87708163D01*
X178037947Y-87708171D01*
X177999500Y-87901455D01*
X177999500Y-88098544D01*
X178037947Y-88291828D01*
X178037949Y-88291836D01*
X178070061Y-88369360D01*
X178079500Y-88416813D01*
X178079500Y-90122410D01*
X178059815Y-90189449D01*
X178057076Y-90193532D01*
X177949431Y-90347267D01*
X177853261Y-90553502D01*
X177853258Y-90553511D01*
X177794366Y-90773302D01*
X177794364Y-90773313D01*
X177774532Y-90999998D01*
X177774532Y-91000001D01*
X177794364Y-91226686D01*
X177794366Y-91226697D01*
X177853258Y-91446488D01*
X177853261Y-91446497D01*
X177949431Y-91652732D01*
X177949432Y-91652734D01*
X178079954Y-91839141D01*
X178240858Y-92000045D01*
X178240861Y-92000047D01*
X178427266Y-92130568D01*
X178633504Y-92226739D01*
X178853308Y-92285635D01*
X179015230Y-92299801D01*
X179079998Y-92305468D01*
X179080000Y-92305468D01*
X179080002Y-92305468D01*
X179136673Y-92300509D01*
X179306692Y-92285635D01*
X179526496Y-92226739D01*
X179732734Y-92130568D01*
X179919139Y-92000047D01*
X180080047Y-91839139D01*
X180210568Y-91652734D01*
X180306739Y-91446496D01*
X180365635Y-91226692D01*
X180385468Y-91000000D01*
X180365635Y-90773308D01*
X180306739Y-90553504D01*
X180210568Y-90347266D01*
X180102924Y-90193532D01*
X180080597Y-90127326D01*
X180080500Y-90122410D01*
X180080500Y-88385782D01*
X180100185Y-88318743D01*
X180116819Y-88298101D01*
X182758101Y-85656819D01*
X182819424Y-85623334D01*
X182845782Y-85620500D01*
X186039242Y-85620500D01*
X186106281Y-85640185D01*
X186126923Y-85656819D01*
X186128597Y-85658493D01*
X186128603Y-85658498D01*
X186314158Y-85788425D01*
X186357783Y-85843002D01*
X186364977Y-85912500D01*
X186333454Y-85974855D01*
X186314158Y-85991575D01*
X186128597Y-86121505D01*
X186126922Y-86123181D01*
X186126000Y-86123684D01*
X186124449Y-86124986D01*
X186124187Y-86124674D01*
X186065599Y-86156666D01*
X186039241Y-86159500D01*
X184741455Y-86159500D01*
X184644812Y-86178724D01*
X184548167Y-86197947D01*
X184548161Y-86197949D01*
X184494834Y-86220037D01*
X184494834Y-86220038D01*
X184449315Y-86238892D01*
X184366089Y-86273366D01*
X184366079Y-86273371D01*
X184202219Y-86382859D01*
X184132540Y-86452538D01*
X184062861Y-86522218D01*
X184062858Y-86522221D01*
X182362221Y-88222858D01*
X182362218Y-88222861D01*
X182295555Y-88289524D01*
X182222859Y-88362219D01*
X182113371Y-88526080D01*
X182113364Y-88526093D01*
X182074858Y-88619058D01*
X182074858Y-88619059D01*
X182037949Y-88708164D01*
X182031175Y-88742218D01*
X181999500Y-88901456D01*
X181999500Y-91534217D01*
X181979815Y-91601256D01*
X181963181Y-91621898D01*
X180163578Y-93421501D01*
X178442221Y-95142858D01*
X178442218Y-95142861D01*
X178372538Y-95212540D01*
X178302859Y-95282219D01*
X178193369Y-95446084D01*
X178193368Y-95446084D01*
X178187399Y-95460498D01*
X178187398Y-95460500D01*
X178117949Y-95628163D01*
X178117947Y-95628171D01*
X178098724Y-95724812D01*
X178079500Y-95821455D01*
X178079500Y-99122410D01*
X178059815Y-99189449D01*
X178057076Y-99193532D01*
X177949431Y-99347267D01*
X177853261Y-99553502D01*
X177853258Y-99553511D01*
X177794366Y-99773302D01*
X177794364Y-99773313D01*
X177774532Y-99999998D01*
X177774532Y-100000001D01*
X177794364Y-100226686D01*
X177794366Y-100226697D01*
X177853258Y-100446488D01*
X177853261Y-100446497D01*
X177949431Y-100652732D01*
X177949432Y-100652734D01*
X178079954Y-100839141D01*
X178240858Y-101000045D01*
X178240861Y-101000047D01*
X178427266Y-101130568D01*
X178633504Y-101226739D01*
X178633509Y-101226740D01*
X178633511Y-101226741D01*
X178686415Y-101240916D01*
X178853308Y-101285635D01*
X179015230Y-101299801D01*
X179079998Y-101305468D01*
X179080000Y-101305468D01*
X179080002Y-101305468D01*
X179136673Y-101300509D01*
X179306692Y-101285635D01*
X179526496Y-101226739D01*
X179732734Y-101130568D01*
X179919139Y-101000047D01*
X180080047Y-100839139D01*
X180210568Y-100652734D01*
X180306739Y-100446496D01*
X180365635Y-100226692D01*
X180384415Y-100012032D01*
X180385468Y-100000001D01*
X180385468Y-99999998D01*
X180371960Y-99845606D01*
X180365635Y-99773308D01*
X180319198Y-99600000D01*
X180306741Y-99553511D01*
X180306738Y-99553502D01*
X180210568Y-99347267D01*
X180210568Y-99347266D01*
X180102924Y-99193532D01*
X180080597Y-99127326D01*
X180080500Y-99122410D01*
X180080500Y-96385781D01*
X180100185Y-96318742D01*
X180116814Y-96298105D01*
X183637778Y-92777141D01*
X183637782Y-92777139D01*
X183777139Y-92637782D01*
X183886632Y-92473914D01*
X183962051Y-92291835D01*
X183986286Y-92170000D01*
X184000500Y-92098543D01*
X184000500Y-89465782D01*
X184020185Y-89398743D01*
X184036819Y-89378101D01*
X185218101Y-88196819D01*
X185279424Y-88163334D01*
X185305782Y-88160500D01*
X185879140Y-88160500D01*
X185946179Y-88180185D01*
X185991934Y-88232989D01*
X186001878Y-88302147D01*
X185972853Y-88365703D01*
X185922473Y-88400682D01*
X185907671Y-88406202D01*
X185907664Y-88406206D01*
X185792455Y-88492452D01*
X185792452Y-88492455D01*
X185706206Y-88607664D01*
X185706202Y-88607671D01*
X185655908Y-88742517D01*
X185649501Y-88802116D01*
X185649501Y-88802123D01*
X185649500Y-88802135D01*
X185649500Y-90597870D01*
X185649501Y-90597876D01*
X185655908Y-90657483D01*
X185706202Y-90792328D01*
X185706206Y-90792335D01*
X185792452Y-90907544D01*
X185792455Y-90907547D01*
X185907665Y-90993794D01*
X185907667Y-90993794D01*
X185907669Y-90993796D01*
X185918830Y-90997958D01*
X185974764Y-91039826D01*
X185999184Y-91105289D01*
X185999500Y-91114141D01*
X185999500Y-102534218D01*
X185979815Y-102601257D01*
X185963181Y-102621899D01*
X184621899Y-103963181D01*
X184560576Y-103996666D01*
X184534218Y-103999500D01*
X162465782Y-103999500D01*
X162398743Y-103979815D01*
X162378101Y-103963181D01*
X161036819Y-102621899D01*
X161003334Y-102560576D01*
X161000500Y-102534218D01*
X161000500Y-99749999D01*
X167641127Y-99749999D01*
X167641128Y-99750000D01*
X168604314Y-99750000D01*
X168599920Y-99754394D01*
X168547259Y-99845606D01*
X168520000Y-99947339D01*
X168520000Y-100052661D01*
X168547259Y-100154394D01*
X168599920Y-100245606D01*
X168604314Y-100250000D01*
X167641128Y-100250000D01*
X167693730Y-100446317D01*
X167693734Y-100446326D01*
X167789865Y-100652482D01*
X167920342Y-100838820D01*
X168081179Y-100999657D01*
X168267517Y-101130134D01*
X168473673Y-101226265D01*
X168473682Y-101226269D01*
X168669999Y-101278872D01*
X168670000Y-101278871D01*
X168670000Y-100315686D01*
X168674394Y-100320080D01*
X168765606Y-100372741D01*
X168867339Y-100400000D01*
X168972661Y-100400000D01*
X169074394Y-100372741D01*
X169165606Y-100320080D01*
X169170000Y-100315686D01*
X169170000Y-101278872D01*
X169366317Y-101226269D01*
X169366326Y-101226265D01*
X169572482Y-101130134D01*
X169758820Y-100999657D01*
X169919657Y-100838820D01*
X170050134Y-100652482D01*
X170146265Y-100446326D01*
X170146269Y-100446317D01*
X170198872Y-100250000D01*
X169235686Y-100250000D01*
X169240080Y-100245606D01*
X169292741Y-100154394D01*
X169320000Y-100052661D01*
X169320000Y-99947339D01*
X169292741Y-99845606D01*
X169240080Y-99754394D01*
X169235686Y-99750000D01*
X170198872Y-99750000D01*
X170198872Y-99749999D01*
X170146269Y-99553682D01*
X170146265Y-99553673D01*
X170050134Y-99347517D01*
X169919657Y-99161179D01*
X169758820Y-99000342D01*
X169572482Y-98869865D01*
X169366328Y-98773734D01*
X169170000Y-98721127D01*
X169170000Y-99684314D01*
X169165606Y-99679920D01*
X169074394Y-99627259D01*
X168972661Y-99600000D01*
X168867339Y-99600000D01*
X168765606Y-99627259D01*
X168674394Y-99679920D01*
X168670000Y-99684314D01*
X168670000Y-98721127D01*
X168473671Y-98773734D01*
X168267517Y-98869865D01*
X168081179Y-99000342D01*
X167920342Y-99161179D01*
X167789865Y-99347517D01*
X167693734Y-99553673D01*
X167693730Y-99553682D01*
X167641127Y-99749999D01*
X161000500Y-99749999D01*
X161000500Y-90749999D01*
X167641127Y-90749999D01*
X167641128Y-90750000D01*
X168604314Y-90750000D01*
X168599920Y-90754394D01*
X168547259Y-90845606D01*
X168520000Y-90947339D01*
X168520000Y-91052661D01*
X168547259Y-91154394D01*
X168599920Y-91245606D01*
X168604314Y-91250000D01*
X167641128Y-91250000D01*
X167693730Y-91446317D01*
X167693734Y-91446326D01*
X167789865Y-91652482D01*
X167920342Y-91838820D01*
X168081179Y-91999657D01*
X168267517Y-92130134D01*
X168473673Y-92226265D01*
X168473682Y-92226269D01*
X168669999Y-92278872D01*
X168670000Y-92278871D01*
X168670000Y-91315686D01*
X168674394Y-91320080D01*
X168765606Y-91372741D01*
X168867339Y-91400000D01*
X168972661Y-91400000D01*
X169074394Y-91372741D01*
X169165606Y-91320080D01*
X169170000Y-91315686D01*
X169170000Y-92278872D01*
X169366317Y-92226269D01*
X169366326Y-92226265D01*
X169572482Y-92130134D01*
X169758820Y-91999657D01*
X169919657Y-91838820D01*
X170050134Y-91652482D01*
X170146265Y-91446326D01*
X170146269Y-91446317D01*
X170198872Y-91250000D01*
X169235686Y-91250000D01*
X169240080Y-91245606D01*
X169292741Y-91154394D01*
X169320000Y-91052661D01*
X169320000Y-90947339D01*
X169292741Y-90845606D01*
X169240080Y-90754394D01*
X169235686Y-90750000D01*
X170198872Y-90750000D01*
X170198872Y-90749999D01*
X170146269Y-90553682D01*
X170146265Y-90553673D01*
X170050134Y-90347517D01*
X169919657Y-90161179D01*
X169758820Y-90000342D01*
X169572482Y-89869865D01*
X169366328Y-89773734D01*
X169170000Y-89721127D01*
X169170000Y-90684314D01*
X169165606Y-90679920D01*
X169074394Y-90627259D01*
X168972661Y-90600000D01*
X168867339Y-90600000D01*
X168765606Y-90627259D01*
X168674394Y-90679920D01*
X168670000Y-90684314D01*
X168670000Y-89721127D01*
X168473671Y-89773734D01*
X168267517Y-89869865D01*
X168081179Y-90000342D01*
X167920342Y-90161179D01*
X167789865Y-90347517D01*
X167693734Y-90553673D01*
X167693730Y-90553682D01*
X167641127Y-90749999D01*
X161000500Y-90749999D01*
X161000500Y-81749999D01*
X167641127Y-81749999D01*
X167641128Y-81750000D01*
X168604314Y-81750000D01*
X168599920Y-81754394D01*
X168547259Y-81845606D01*
X168520000Y-81947339D01*
X168520000Y-82052661D01*
X168547259Y-82154394D01*
X168599920Y-82245606D01*
X168604314Y-82250000D01*
X167641128Y-82250000D01*
X167693730Y-82446317D01*
X167693734Y-82446326D01*
X167789865Y-82652482D01*
X167920342Y-82838820D01*
X168081179Y-82999657D01*
X168267517Y-83130134D01*
X168473673Y-83226265D01*
X168473682Y-83226269D01*
X168669999Y-83278872D01*
X168670000Y-83278871D01*
X168670000Y-82315686D01*
X168674394Y-82320080D01*
X168765606Y-82372741D01*
X168867339Y-82400000D01*
X168972661Y-82400000D01*
X169074394Y-82372741D01*
X169165606Y-82320080D01*
X169170000Y-82315686D01*
X169170000Y-83278872D01*
X169366317Y-83226269D01*
X169366326Y-83226265D01*
X169572482Y-83130134D01*
X169758820Y-82999657D01*
X169919657Y-82838820D01*
X170050134Y-82652482D01*
X170146265Y-82446326D01*
X170146269Y-82446317D01*
X170198872Y-82250000D01*
X169235686Y-82250000D01*
X169240080Y-82245606D01*
X169292741Y-82154394D01*
X169320000Y-82052661D01*
X169320000Y-81947339D01*
X169292741Y-81845606D01*
X169240080Y-81754394D01*
X169235686Y-81750000D01*
X170198872Y-81750000D01*
X170198872Y-81749999D01*
X170146269Y-81553682D01*
X170146265Y-81553673D01*
X170050134Y-81347517D01*
X169919657Y-81161179D01*
X169758820Y-81000342D01*
X169572482Y-80869865D01*
X169366328Y-80773734D01*
X169170000Y-80721127D01*
X169170000Y-81684314D01*
X169165606Y-81679920D01*
X169074394Y-81627259D01*
X168972661Y-81600000D01*
X168867339Y-81600000D01*
X168765606Y-81627259D01*
X168674394Y-81679920D01*
X168670000Y-81684314D01*
X168670000Y-80721127D01*
X168473671Y-80773734D01*
X168267517Y-80869865D01*
X168081179Y-81000342D01*
X167920342Y-81161179D01*
X167789865Y-81347517D01*
X167693734Y-81553673D01*
X167693730Y-81553682D01*
X167641127Y-81749999D01*
X161000500Y-81749999D01*
X161000500Y-72749999D01*
X167641127Y-72749999D01*
X167641128Y-72750000D01*
X168604314Y-72750000D01*
X168599920Y-72754394D01*
X168547259Y-72845606D01*
X168520000Y-72947339D01*
X168520000Y-73052661D01*
X168547259Y-73154394D01*
X168599920Y-73245606D01*
X168604314Y-73250000D01*
X167641128Y-73250000D01*
X167693730Y-73446317D01*
X167693734Y-73446326D01*
X167789865Y-73652482D01*
X167920342Y-73838820D01*
X168081179Y-73999657D01*
X168267517Y-74130134D01*
X168473673Y-74226265D01*
X168473682Y-74226269D01*
X168669999Y-74278872D01*
X168670000Y-74278871D01*
X168670000Y-73315686D01*
X168674394Y-73320080D01*
X168765606Y-73372741D01*
X168867339Y-73400000D01*
X168972661Y-73400000D01*
X169074394Y-73372741D01*
X169165606Y-73320080D01*
X169170000Y-73315686D01*
X169170000Y-74278872D01*
X169366317Y-74226269D01*
X169366326Y-74226265D01*
X169572482Y-74130134D01*
X169758820Y-73999657D01*
X169919657Y-73838820D01*
X170050134Y-73652482D01*
X170146265Y-73446326D01*
X170146269Y-73446317D01*
X170198872Y-73250000D01*
X169235686Y-73250000D01*
X169240080Y-73245606D01*
X169292741Y-73154394D01*
X169320000Y-73052661D01*
X169320000Y-72947339D01*
X169292741Y-72845606D01*
X169240080Y-72754394D01*
X169235686Y-72750000D01*
X170198872Y-72750000D01*
X170198872Y-72749999D01*
X170146269Y-72553682D01*
X170146265Y-72553673D01*
X170050134Y-72347517D01*
X169919657Y-72161179D01*
X169758820Y-72000342D01*
X169572482Y-71869865D01*
X169366328Y-71773734D01*
X169170000Y-71721127D01*
X169170000Y-72684314D01*
X169165606Y-72679920D01*
X169074394Y-72627259D01*
X168972661Y-72600000D01*
X168867339Y-72600000D01*
X168765606Y-72627259D01*
X168674394Y-72679920D01*
X168670000Y-72684314D01*
X168670000Y-71721127D01*
X168473671Y-71773734D01*
X168267517Y-71869865D01*
X168081179Y-72000342D01*
X167920342Y-72161179D01*
X167789865Y-72347517D01*
X167693734Y-72553673D01*
X167693730Y-72553682D01*
X167641127Y-72749999D01*
X161000500Y-72749999D01*
X161000500Y-62749999D01*
X167641127Y-62749999D01*
X167641128Y-62750000D01*
X168604314Y-62750000D01*
X168599920Y-62754394D01*
X168547259Y-62845606D01*
X168520000Y-62947339D01*
X168520000Y-63052661D01*
X168547259Y-63154394D01*
X168599920Y-63245606D01*
X168604314Y-63250000D01*
X167641128Y-63250000D01*
X167693730Y-63446317D01*
X167693734Y-63446326D01*
X167789865Y-63652482D01*
X167920342Y-63838820D01*
X168081179Y-63999657D01*
X168267517Y-64130134D01*
X168473673Y-64226265D01*
X168473682Y-64226269D01*
X168669999Y-64278872D01*
X168670000Y-64278871D01*
X168670000Y-63315686D01*
X168674394Y-63320080D01*
X168765606Y-63372741D01*
X168867339Y-63400000D01*
X168972661Y-63400000D01*
X169074394Y-63372741D01*
X169165606Y-63320080D01*
X169170000Y-63315686D01*
X169170000Y-64278872D01*
X169366317Y-64226269D01*
X169366326Y-64226265D01*
X169572482Y-64130134D01*
X169758820Y-63999657D01*
X169919657Y-63838820D01*
X170050134Y-63652482D01*
X170146265Y-63446326D01*
X170146269Y-63446317D01*
X170198872Y-63250000D01*
X169235686Y-63250000D01*
X169240080Y-63245606D01*
X169292741Y-63154394D01*
X169320000Y-63052661D01*
X169320000Y-62947339D01*
X169292741Y-62845606D01*
X169240080Y-62754394D01*
X169235686Y-62750000D01*
X170198872Y-62750000D01*
X170198872Y-62749999D01*
X170146269Y-62553682D01*
X170146265Y-62553673D01*
X170050134Y-62347517D01*
X169919657Y-62161179D01*
X169758820Y-62000342D01*
X169572482Y-61869865D01*
X169366328Y-61773734D01*
X169170000Y-61721127D01*
X169170000Y-62684314D01*
X169165606Y-62679920D01*
X169074394Y-62627259D01*
X168972661Y-62600000D01*
X168867339Y-62600000D01*
X168765606Y-62627259D01*
X168674394Y-62679920D01*
X168670000Y-62684314D01*
X168670000Y-61721127D01*
X168473671Y-61773734D01*
X168267517Y-61869865D01*
X168081179Y-62000342D01*
X167920342Y-62161179D01*
X167789865Y-62347517D01*
X167693734Y-62553673D01*
X167693730Y-62553682D01*
X167641127Y-62749999D01*
X161000500Y-62749999D01*
X161000500Y-62465782D01*
X161020185Y-62398743D01*
X161036819Y-62378101D01*
X165378101Y-58036819D01*
X165439424Y-58003334D01*
X165465782Y-58000500D01*
X199534218Y-58000500D01*
X199601257Y-58020185D01*
G37*
%TD.AperFunction*%
%TA.AperFunction,Conductor*%
G36*
X198106281Y-82780185D02*
G01*
X198126923Y-82796819D01*
X198128597Y-82798493D01*
X198128603Y-82798498D01*
X198314594Y-82928730D01*
X198358219Y-82983307D01*
X198365413Y-83052805D01*
X198333890Y-83115160D01*
X198314595Y-83131880D01*
X198128922Y-83261890D01*
X198128920Y-83261891D01*
X197961891Y-83428920D01*
X197961886Y-83428926D01*
X197826400Y-83622420D01*
X197826399Y-83622422D01*
X197726570Y-83836507D01*
X197726567Y-83836513D01*
X197669364Y-84049999D01*
X197669364Y-84050000D01*
X198566988Y-84050000D01*
X198534075Y-84107007D01*
X198500000Y-84234174D01*
X198500000Y-84365826D01*
X198534075Y-84492993D01*
X198566988Y-84550000D01*
X197669364Y-84550000D01*
X197726567Y-84763486D01*
X197726570Y-84763492D01*
X197826399Y-84977578D01*
X197961894Y-85171082D01*
X198128917Y-85338105D01*
X198314595Y-85468119D01*
X198358219Y-85522696D01*
X198365412Y-85592195D01*
X198333890Y-85654549D01*
X198314595Y-85671269D01*
X198128594Y-85801508D01*
X198126922Y-85803181D01*
X198126000Y-85803684D01*
X198124449Y-85804986D01*
X198124187Y-85804674D01*
X198065599Y-85836666D01*
X198039241Y-85839500D01*
X192636543Y-85839500D01*
X192569504Y-85819815D01*
X192523749Y-85767011D01*
X192513805Y-85697853D01*
X192542830Y-85634297D01*
X192601608Y-85596523D01*
X192612340Y-85593885D01*
X192671836Y-85582051D01*
X192725165Y-85559961D01*
X192853914Y-85506632D01*
X193017782Y-85397139D01*
X193157139Y-85257782D01*
X193157140Y-85257779D01*
X193164206Y-85250714D01*
X193164208Y-85250710D01*
X195618101Y-82796819D01*
X195679424Y-82763334D01*
X195705782Y-82760500D01*
X198039242Y-82760500D01*
X198106281Y-82780185D01*
G37*
%TD.AperFunction*%
%TA.AperFunction,Conductor*%
G36*
X198106281Y-72620185D02*
G01*
X198126923Y-72636819D01*
X198128597Y-72638493D01*
X198128603Y-72638498D01*
X198314158Y-72768425D01*
X198357783Y-72823002D01*
X198364977Y-72892500D01*
X198333454Y-72954855D01*
X198314158Y-72971575D01*
X198128597Y-73101505D01*
X197961505Y-73268597D01*
X197825965Y-73462169D01*
X197825964Y-73462171D01*
X197726098Y-73676335D01*
X197726094Y-73676344D01*
X197664938Y-73904586D01*
X197664936Y-73904596D01*
X197644341Y-74139999D01*
X197644341Y-74140000D01*
X197664936Y-74375403D01*
X197664938Y-74375413D01*
X197726094Y-74603655D01*
X197726096Y-74603659D01*
X197726097Y-74603663D01*
X197730000Y-74612032D01*
X197825965Y-74817830D01*
X197825967Y-74817834D01*
X197934281Y-74972521D01*
X197961505Y-75011401D01*
X198128599Y-75178495D01*
X198305249Y-75302187D01*
X198314594Y-75308730D01*
X198358219Y-75363307D01*
X198365413Y-75432805D01*
X198333890Y-75495160D01*
X198314595Y-75511880D01*
X198128922Y-75641890D01*
X198128920Y-75641891D01*
X197961891Y-75808920D01*
X197961886Y-75808926D01*
X197826400Y-76002420D01*
X197826399Y-76002422D01*
X197726570Y-76216507D01*
X197726567Y-76216513D01*
X197669364Y-76429999D01*
X197669364Y-76430000D01*
X198566988Y-76430000D01*
X198534075Y-76487007D01*
X198500000Y-76614174D01*
X198500000Y-76745826D01*
X198534075Y-76872993D01*
X198566988Y-76930000D01*
X197669364Y-76930000D01*
X197726567Y-77143486D01*
X197726570Y-77143492D01*
X197826399Y-77357578D01*
X197961894Y-77551082D01*
X198128917Y-77718105D01*
X198314595Y-77848119D01*
X198358219Y-77902696D01*
X198365412Y-77972195D01*
X198333890Y-78034549D01*
X198314595Y-78051269D01*
X198128594Y-78181508D01*
X198126922Y-78183181D01*
X198126000Y-78183684D01*
X198124449Y-78184986D01*
X198124187Y-78184674D01*
X198065599Y-78216666D01*
X198039241Y-78219500D01*
X193681455Y-78219500D01*
X193584812Y-78238724D01*
X193488158Y-78257949D01*
X193486469Y-78258462D01*
X193485541Y-78258470D01*
X193482189Y-78259137D01*
X193482062Y-78258500D01*
X193416602Y-78259080D01*
X193357492Y-78221828D01*
X193327906Y-78158531D01*
X193337237Y-78089287D01*
X193362800Y-78052120D01*
X193777139Y-77637782D01*
X193834857Y-77551401D01*
X193886631Y-77473916D01*
X193886635Y-77473908D01*
X193886635Y-77473906D01*
X193890878Y-77463664D01*
X193907354Y-77423885D01*
X193934715Y-77357831D01*
X193934715Y-77357830D01*
X193934819Y-77357578D01*
X193962051Y-77291836D01*
X194000500Y-77098541D01*
X194000500Y-76901460D01*
X194000500Y-76901459D01*
X194000500Y-73465782D01*
X194020185Y-73398743D01*
X194036819Y-73378101D01*
X194778101Y-72636819D01*
X194839424Y-72603334D01*
X194865782Y-72600500D01*
X198039242Y-72600500D01*
X198106281Y-72620185D01*
G37*
%TD.AperFunction*%
%TA.AperFunction,Conductor*%
G36*
X236227638Y-49384685D02*
G01*
X236273393Y-49437489D01*
X236284597Y-49489399D01*
X236231675Y-65853890D01*
X236055402Y-120360408D01*
X236035501Y-120427383D01*
X235982549Y-120472967D01*
X235930411Y-120484003D01*
X162336325Y-119895250D01*
X162269445Y-119875030D01*
X162224114Y-119821861D01*
X162214724Y-119752626D01*
X162244257Y-119689304D01*
X162289862Y-119656694D01*
X162515833Y-119563094D01*
X162830452Y-119389211D01*
X163123623Y-119181194D01*
X163391661Y-118941661D01*
X163631194Y-118673623D01*
X163839211Y-118380452D01*
X164013094Y-118065833D01*
X164150659Y-117733724D01*
X164250173Y-117388300D01*
X164310387Y-117033907D01*
X164330543Y-116675000D01*
X164310387Y-116316093D01*
X164263477Y-116040000D01*
X229039457Y-116040000D01*
X229059612Y-116398902D01*
X229059614Y-116398914D01*
X229119826Y-116753296D01*
X229119828Y-116753305D01*
X229219339Y-117098718D01*
X229219341Y-117098724D01*
X229356906Y-117430833D01*
X229530789Y-117745452D01*
X229738806Y-118038623D01*
X229978339Y-118306661D01*
X230246377Y-118546194D01*
X230539548Y-118754211D01*
X230854167Y-118928094D01*
X231186276Y-119065659D01*
X231531700Y-119165173D01*
X231886093Y-119225387D01*
X232245000Y-119245543D01*
X232603907Y-119225387D01*
X232958300Y-119165173D01*
X233303724Y-119065659D01*
X233635833Y-118928094D01*
X233950452Y-118754211D01*
X234243623Y-118546194D01*
X234511661Y-118306661D01*
X234751194Y-118038623D01*
X234959211Y-117745452D01*
X235133094Y-117430833D01*
X235270659Y-117098724D01*
X235370173Y-116753300D01*
X235430387Y-116398907D01*
X235450543Y-116040000D01*
X235430387Y-115681093D01*
X235370173Y-115326700D01*
X235270659Y-114981276D01*
X235133094Y-114649167D01*
X234959211Y-114334548D01*
X234841609Y-114168805D01*
X234751194Y-114041377D01*
X234679176Y-113960789D01*
X234511661Y-113773339D01*
X234243623Y-113533806D01*
X234181341Y-113489614D01*
X233950454Y-113325790D01*
X233635831Y-113151905D01*
X233549086Y-113115974D01*
X233303724Y-113014341D01*
X233303720Y-113014339D01*
X233303718Y-113014339D01*
X232958305Y-112914828D01*
X232958296Y-112914826D01*
X232603914Y-112854614D01*
X232603902Y-112854612D01*
X232245000Y-112834457D01*
X231886097Y-112854612D01*
X231886085Y-112854614D01*
X231531703Y-112914826D01*
X231531694Y-112914828D01*
X231186281Y-113014339D01*
X230854168Y-113151905D01*
X230539545Y-113325790D01*
X230246377Y-113533805D01*
X229978339Y-113773339D01*
X229738805Y-114041377D01*
X229530790Y-114334545D01*
X229356905Y-114649168D01*
X229219339Y-114981281D01*
X229119828Y-115326694D01*
X229119826Y-115326703D01*
X229059614Y-115681085D01*
X229059612Y-115681097D01*
X229039457Y-116040000D01*
X164263477Y-116040000D01*
X164250173Y-115961700D01*
X164150659Y-115616276D01*
X164013094Y-115284167D01*
X163839211Y-114969548D01*
X163631194Y-114676377D01*
X163391661Y-114408339D01*
X163123623Y-114168806D01*
X162944030Y-114041377D01*
X162830454Y-113960790D01*
X162515831Y-113786905D01*
X162429086Y-113750974D01*
X162183724Y-113649341D01*
X162183720Y-113649339D01*
X162183718Y-113649339D01*
X161838305Y-113549828D01*
X161838296Y-113549826D01*
X161483914Y-113489614D01*
X161483902Y-113489612D01*
X161125000Y-113469457D01*
X160766097Y-113489612D01*
X160766085Y-113489614D01*
X160411703Y-113549826D01*
X160411694Y-113549828D01*
X160066281Y-113649339D01*
X159734168Y-113786905D01*
X159419545Y-113960790D01*
X159126377Y-114168805D01*
X158858339Y-114408339D01*
X158618805Y-114676377D01*
X158410790Y-114969545D01*
X158236905Y-115284168D01*
X158099339Y-115616281D01*
X157999828Y-115961694D01*
X157999826Y-115961703D01*
X157939614Y-116316085D01*
X157939612Y-116316097D01*
X157919457Y-116675000D01*
X157939612Y-117033902D01*
X157939614Y-117033914D01*
X157999826Y-117388296D01*
X157999828Y-117388305D01*
X158099339Y-117733718D01*
X158236905Y-118065831D01*
X158410790Y-118380454D01*
X158618805Y-118673622D01*
X158618806Y-118673623D01*
X158858339Y-118941661D01*
X159126377Y-119181194D01*
X159217066Y-119245542D01*
X159419548Y-119389211D01*
X159734167Y-119563094D01*
X159912385Y-119636914D01*
X159966787Y-119680755D01*
X159988852Y-119747049D01*
X159971573Y-119814748D01*
X159920436Y-119862359D01*
X159863939Y-119875471D01*
X156803568Y-119850988D01*
X156736688Y-119830768D01*
X156691357Y-119777599D01*
X156680561Y-119726429D01*
X156726126Y-109689994D01*
X168610202Y-109689994D01*
X168610202Y-109690005D01*
X168629361Y-109921218D01*
X168686317Y-110146135D01*
X168779515Y-110358606D01*
X168863812Y-110487633D01*
X169572861Y-109778584D01*
X169595667Y-109863694D01*
X169654910Y-109966306D01*
X169738694Y-110050090D01*
X169841306Y-110109333D01*
X169926414Y-110132138D01*
X169216201Y-110842351D01*
X169246649Y-110866050D01*
X169450697Y-110976476D01*
X169450706Y-110976479D01*
X169670139Y-111051811D01*
X169898993Y-111090000D01*
X170131007Y-111090000D01*
X170359860Y-111051811D01*
X170579293Y-110976479D01*
X170579301Y-110976476D01*
X170783355Y-110866047D01*
X170813797Y-110842351D01*
X170813798Y-110842350D01*
X170103585Y-110132137D01*
X170188694Y-110109333D01*
X170291306Y-110050090D01*
X170375090Y-109966306D01*
X170434333Y-109863694D01*
X170457138Y-109778584D01*
X171118181Y-110439627D01*
X171151666Y-110500950D01*
X171154500Y-110527307D01*
X171154500Y-110637869D01*
X171154501Y-110637876D01*
X171160908Y-110697483D01*
X171211202Y-110832328D01*
X171211206Y-110832335D01*
X171297452Y-110947544D01*
X171297455Y-110947547D01*
X171412664Y-111033793D01*
X171412671Y-111033797D01*
X171547517Y-111084091D01*
X171547516Y-111084091D01*
X171554444Y-111084835D01*
X171607127Y-111090500D01*
X173502872Y-111090499D01*
X173562483Y-111084091D01*
X173697331Y-111033796D01*
X173812546Y-110947546D01*
X173898796Y-110832331D01*
X173921609Y-110771167D01*
X173963480Y-110715233D01*
X174028944Y-110690816D01*
X174037791Y-110690500D01*
X182472412Y-110690500D01*
X182539451Y-110710185D01*
X182543523Y-110712917D01*
X182697266Y-110820568D01*
X182903504Y-110916739D01*
X183123308Y-110975635D01*
X183285230Y-110989801D01*
X183349998Y-110995468D01*
X183350000Y-110995468D01*
X183350002Y-110995468D01*
X183406673Y-110990509D01*
X183576692Y-110975635D01*
X183796496Y-110916739D01*
X184002734Y-110820568D01*
X184189139Y-110690047D01*
X184350047Y-110529139D01*
X184480568Y-110342734D01*
X184576739Y-110136496D01*
X184635635Y-109916692D01*
X184655468Y-109690000D01*
X184655467Y-109689994D01*
X184645319Y-109574000D01*
X184635635Y-109463308D01*
X184576739Y-109243504D01*
X184480568Y-109037266D01*
X184350047Y-108850861D01*
X184350045Y-108850858D01*
X184189141Y-108689954D01*
X184002734Y-108559432D01*
X184002732Y-108559431D01*
X183796497Y-108463261D01*
X183796488Y-108463258D01*
X183576697Y-108404366D01*
X183576693Y-108404365D01*
X183576692Y-108404365D01*
X183576691Y-108404364D01*
X183576686Y-108404364D01*
X183350002Y-108384532D01*
X183349998Y-108384532D01*
X183123313Y-108404364D01*
X183123302Y-108404366D01*
X182903511Y-108463258D01*
X182903502Y-108463261D01*
X182697267Y-108559431D01*
X182697265Y-108559432D01*
X182626713Y-108608833D01*
X182548858Y-108663348D01*
X182543535Y-108667075D01*
X182477329Y-108689402D01*
X182472412Y-108689500D01*
X174037791Y-108689500D01*
X173970752Y-108669815D01*
X173924997Y-108617011D01*
X173921609Y-108608833D01*
X173898797Y-108547671D01*
X173898793Y-108547664D01*
X173812547Y-108432455D01*
X173812544Y-108432452D01*
X173697335Y-108346206D01*
X173697328Y-108346202D01*
X173562482Y-108295908D01*
X173562483Y-108295908D01*
X173502883Y-108289501D01*
X173502881Y-108289500D01*
X173502873Y-108289500D01*
X173502864Y-108289500D01*
X171607129Y-108289500D01*
X171607123Y-108289501D01*
X171547516Y-108295908D01*
X171412671Y-108346202D01*
X171412664Y-108346206D01*
X171297455Y-108432452D01*
X171297452Y-108432455D01*
X171211206Y-108547664D01*
X171211202Y-108547671D01*
X171160908Y-108682517D01*
X171154501Y-108742116D01*
X171154500Y-108742135D01*
X171154500Y-108852691D01*
X171134815Y-108919730D01*
X171118181Y-108940372D01*
X170457138Y-109601414D01*
X170434333Y-109516306D01*
X170375090Y-109413694D01*
X170291306Y-109329910D01*
X170188694Y-109270667D01*
X170103584Y-109247861D01*
X170813797Y-108537647D01*
X170813797Y-108537645D01*
X170783360Y-108513955D01*
X170783354Y-108513951D01*
X170579302Y-108403523D01*
X170579293Y-108403520D01*
X170359860Y-108328188D01*
X170131007Y-108290000D01*
X169898993Y-108290000D01*
X169670139Y-108328188D01*
X169450706Y-108403520D01*
X169450697Y-108403523D01*
X169246650Y-108513949D01*
X169216200Y-108537647D01*
X169926415Y-109247861D01*
X169841306Y-109270667D01*
X169738694Y-109329910D01*
X169654910Y-109413694D01*
X169595667Y-109516306D01*
X169572861Y-109601415D01*
X168863811Y-108892365D01*
X168779516Y-109021390D01*
X168686317Y-109233864D01*
X168629361Y-109458781D01*
X168610202Y-109689994D01*
X156726126Y-109689994D01*
X156756051Y-103098543D01*
X158999499Y-103098543D01*
X159037947Y-103291829D01*
X159037950Y-103291839D01*
X159113364Y-103473907D01*
X159113371Y-103473920D01*
X159222860Y-103637781D01*
X159222863Y-103637785D01*
X159366537Y-103781459D01*
X159366559Y-103781479D01*
X161219735Y-105634655D01*
X161219764Y-105634686D01*
X161362214Y-105777136D01*
X161362218Y-105777139D01*
X161526079Y-105886628D01*
X161526092Y-105886635D01*
X161654833Y-105939961D01*
X161708159Y-105962049D01*
X161708164Y-105962051D01*
X161776576Y-105975659D01*
X161807796Y-105981869D01*
X161901456Y-106000500D01*
X161901459Y-106000500D01*
X185098543Y-106000500D01*
X185181796Y-105983939D01*
X185223424Y-105975659D01*
X185291836Y-105962051D01*
X185345165Y-105939961D01*
X185473914Y-105886632D01*
X185637782Y-105777139D01*
X185777139Y-105637782D01*
X185777140Y-105637779D01*
X185784206Y-105630714D01*
X185784209Y-105630710D01*
X187637778Y-103777141D01*
X187637782Y-103777139D01*
X187777139Y-103637782D01*
X187886632Y-103473914D01*
X187962051Y-103291835D01*
X187974632Y-103228582D01*
X188000500Y-103098543D01*
X188000500Y-91114141D01*
X188020185Y-91047102D01*
X188072989Y-91001347D01*
X188081149Y-90997966D01*
X188092331Y-90993796D01*
X188207546Y-90907546D01*
X188293796Y-90792331D01*
X188344091Y-90657483D01*
X188350500Y-90597873D01*
X188350499Y-88802128D01*
X188345299Y-88753757D01*
X188344091Y-88742516D01*
X188293797Y-88607671D01*
X188293793Y-88607664D01*
X188207547Y-88492455D01*
X188207544Y-88492452D01*
X188092335Y-88406206D01*
X188092328Y-88406202D01*
X188077527Y-88400682D01*
X188021593Y-88358811D01*
X187997176Y-88293346D01*
X188012028Y-88225073D01*
X188061433Y-88175668D01*
X188120860Y-88160500D01*
X191938542Y-88160500D01*
X191957870Y-88156655D01*
X192035188Y-88141275D01*
X192131836Y-88122051D01*
X192188596Y-88098540D01*
X192313914Y-88046632D01*
X192477782Y-87937139D01*
X192538103Y-87876817D01*
X192599424Y-87843334D01*
X192625783Y-87840500D01*
X198039242Y-87840500D01*
X198106281Y-87860185D01*
X198126923Y-87876819D01*
X198128597Y-87878493D01*
X198128603Y-87878498D01*
X198314158Y-88008425D01*
X198357783Y-88063002D01*
X198364977Y-88132500D01*
X198333454Y-88194855D01*
X198314158Y-88211575D01*
X198128597Y-88341505D01*
X197961505Y-88508597D01*
X197825965Y-88702169D01*
X197825964Y-88702171D01*
X197726098Y-88916335D01*
X197726094Y-88916344D01*
X197664938Y-89144586D01*
X197664936Y-89144596D01*
X197644341Y-89379999D01*
X197644341Y-89380000D01*
X197664936Y-89615403D01*
X197664938Y-89615413D01*
X197726094Y-89843655D01*
X197726096Y-89843659D01*
X197726097Y-89843663D01*
X197799158Y-90000342D01*
X197825965Y-90057830D01*
X197825967Y-90057834D01*
X197916956Y-90187778D01*
X197961501Y-90251396D01*
X197961506Y-90251402D01*
X198128597Y-90418493D01*
X198128603Y-90418498D01*
X198314158Y-90548425D01*
X198357783Y-90603002D01*
X198364977Y-90672500D01*
X198333454Y-90734855D01*
X198314158Y-90751575D01*
X198128597Y-90881505D01*
X197961505Y-91048597D01*
X197825965Y-91242169D01*
X197825964Y-91242171D01*
X197726098Y-91456335D01*
X197726094Y-91456344D01*
X197664938Y-91684586D01*
X197664936Y-91684596D01*
X197644341Y-91919999D01*
X197644341Y-91920000D01*
X197664936Y-92155403D01*
X197664938Y-92155413D01*
X197726094Y-92383655D01*
X197726096Y-92383659D01*
X197726097Y-92383663D01*
X197809155Y-92561781D01*
X197825965Y-92597830D01*
X197825967Y-92597834D01*
X197934281Y-92752521D01*
X197961501Y-92791396D01*
X197961506Y-92791402D01*
X198128597Y-92958493D01*
X198128603Y-92958498D01*
X198314158Y-93088425D01*
X198357783Y-93143002D01*
X198364977Y-93212500D01*
X198333454Y-93274855D01*
X198314158Y-93291575D01*
X198128597Y-93421505D01*
X197961505Y-93588597D01*
X197825965Y-93782169D01*
X197825964Y-93782171D01*
X197726098Y-93996335D01*
X197726094Y-93996344D01*
X197664938Y-94224586D01*
X197664936Y-94224596D01*
X197644341Y-94459999D01*
X197644341Y-94460000D01*
X197664936Y-94695403D01*
X197664938Y-94695413D01*
X197726094Y-94923655D01*
X197726096Y-94923659D01*
X197726097Y-94923663D01*
X197806004Y-95095023D01*
X197825965Y-95137830D01*
X197825967Y-95137834D01*
X197915969Y-95266369D01*
X197961505Y-95331401D01*
X198128599Y-95498495D01*
X198313795Y-95628171D01*
X198314594Y-95628730D01*
X198358219Y-95683307D01*
X198365413Y-95752805D01*
X198333890Y-95815160D01*
X198314595Y-95831880D01*
X198128922Y-95961890D01*
X198128920Y-95961891D01*
X197961891Y-96128920D01*
X197961886Y-96128926D01*
X197826400Y-96322420D01*
X197826399Y-96322422D01*
X197726570Y-96536507D01*
X197726567Y-96536513D01*
X197669364Y-96749999D01*
X197669364Y-96750000D01*
X198566988Y-96750000D01*
X198534075Y-96807007D01*
X198500000Y-96934174D01*
X198500000Y-97065826D01*
X198534075Y-97192993D01*
X198566988Y-97250000D01*
X197669364Y-97250000D01*
X197726567Y-97463486D01*
X197726570Y-97463492D01*
X197826399Y-97677578D01*
X197961894Y-97871082D01*
X198128917Y-98038105D01*
X198314595Y-98168119D01*
X198358219Y-98222696D01*
X198365412Y-98292195D01*
X198333890Y-98354549D01*
X198314595Y-98371269D01*
X198128594Y-98501508D01*
X197961505Y-98668597D01*
X197825965Y-98862169D01*
X197825964Y-98862171D01*
X197726098Y-99076335D01*
X197726094Y-99076344D01*
X197664938Y-99304586D01*
X197664936Y-99304596D01*
X197644341Y-99539999D01*
X197644341Y-99540000D01*
X197664936Y-99775403D01*
X197664938Y-99775413D01*
X197726094Y-100003655D01*
X197726096Y-100003659D01*
X197726097Y-100003663D01*
X197796384Y-100154394D01*
X197825965Y-100217830D01*
X197825967Y-100217834D01*
X197899453Y-100322782D01*
X197961501Y-100411396D01*
X197961506Y-100411402D01*
X198128597Y-100578493D01*
X198128603Y-100578498D01*
X198314594Y-100708730D01*
X198358219Y-100763307D01*
X198365413Y-100832805D01*
X198333890Y-100895160D01*
X198314595Y-100911880D01*
X198128922Y-101041890D01*
X198128920Y-101041891D01*
X197961891Y-101208920D01*
X197961886Y-101208926D01*
X197826400Y-101402420D01*
X197826399Y-101402422D01*
X197726570Y-101616507D01*
X197726567Y-101616513D01*
X197669364Y-101829999D01*
X197669364Y-101830000D01*
X198566988Y-101830000D01*
X198534075Y-101887007D01*
X198500000Y-102014174D01*
X198500000Y-102145826D01*
X198534075Y-102272993D01*
X198566988Y-102330000D01*
X197669364Y-102330000D01*
X197726567Y-102543486D01*
X197726570Y-102543492D01*
X197826399Y-102757578D01*
X197961894Y-102951082D01*
X198128917Y-103118105D01*
X198314595Y-103248119D01*
X198358219Y-103302696D01*
X198365412Y-103372195D01*
X198333890Y-103434549D01*
X198314595Y-103451269D01*
X198128594Y-103581508D01*
X197961505Y-103748597D01*
X197825965Y-103942169D01*
X197825964Y-103942171D01*
X197726098Y-104156335D01*
X197726094Y-104156344D01*
X197664938Y-104384586D01*
X197664936Y-104384596D01*
X197644341Y-104619999D01*
X197644341Y-104620000D01*
X197664936Y-104855403D01*
X197664938Y-104855413D01*
X197726094Y-105083655D01*
X197726096Y-105083659D01*
X197726097Y-105083663D01*
X197793061Y-105227267D01*
X197825965Y-105297830D01*
X197825967Y-105297834D01*
X197920964Y-105433502D01*
X197961501Y-105491396D01*
X197961506Y-105491402D01*
X198128597Y-105658493D01*
X198128603Y-105658498D01*
X198314158Y-105788425D01*
X198357783Y-105843002D01*
X198364977Y-105912500D01*
X198333454Y-105974855D01*
X198314158Y-105991575D01*
X198128597Y-106121505D01*
X197961505Y-106288597D01*
X197825965Y-106482169D01*
X197825964Y-106482171D01*
X197726098Y-106696335D01*
X197726094Y-106696344D01*
X197664938Y-106924586D01*
X197664936Y-106924596D01*
X197644341Y-107159999D01*
X197644341Y-107160000D01*
X197664936Y-107395403D01*
X197664938Y-107395413D01*
X197726094Y-107623655D01*
X197726096Y-107623659D01*
X197726097Y-107623663D01*
X197730000Y-107632032D01*
X197825965Y-107837830D01*
X197825967Y-107837834D01*
X197934281Y-107992521D01*
X197961501Y-108031396D01*
X197961506Y-108031402D01*
X198128597Y-108198493D01*
X198128603Y-108198498D01*
X198314158Y-108328425D01*
X198357783Y-108383002D01*
X198364977Y-108452500D01*
X198333454Y-108514855D01*
X198314158Y-108531575D01*
X198124164Y-108664610D01*
X198123280Y-108663348D01*
X198065794Y-108688503D01*
X198050103Y-108689500D01*
X194387588Y-108689500D01*
X194320549Y-108669815D01*
X194316465Y-108667075D01*
X194311142Y-108663348D01*
X194162734Y-108559432D01*
X194137513Y-108547671D01*
X193956497Y-108463261D01*
X193956488Y-108463258D01*
X193736697Y-108404366D01*
X193736693Y-108404365D01*
X193736692Y-108404365D01*
X193736691Y-108404364D01*
X193736686Y-108404364D01*
X193510002Y-108384532D01*
X193509998Y-108384532D01*
X193283313Y-108404364D01*
X193283302Y-108404366D01*
X193063511Y-108463258D01*
X193063502Y-108463261D01*
X192857267Y-108559431D01*
X192857265Y-108559432D01*
X192670858Y-108689954D01*
X192509954Y-108850858D01*
X192379432Y-109037265D01*
X192379431Y-109037267D01*
X192283261Y-109243502D01*
X192283258Y-109243511D01*
X192224366Y-109463302D01*
X192224364Y-109463313D01*
X192204532Y-109689998D01*
X192204532Y-109690001D01*
X192224364Y-109916686D01*
X192224366Y-109916697D01*
X192283258Y-110136488D01*
X192283261Y-110136497D01*
X192379431Y-110342732D01*
X192379432Y-110342734D01*
X192509954Y-110529141D01*
X192670858Y-110690045D01*
X192670861Y-110690047D01*
X192857266Y-110820568D01*
X193063504Y-110916739D01*
X193283308Y-110975635D01*
X193445230Y-110989801D01*
X193509998Y-110995468D01*
X193510000Y-110995468D01*
X193510002Y-110995468D01*
X193566673Y-110990509D01*
X193736692Y-110975635D01*
X193956496Y-110916739D01*
X194162734Y-110820568D01*
X194316465Y-110712924D01*
X194382671Y-110690598D01*
X194387588Y-110690500D01*
X198029242Y-110690500D01*
X198096281Y-110710185D01*
X198116923Y-110726819D01*
X198128599Y-110738495D01*
X198225384Y-110806265D01*
X198322165Y-110874032D01*
X198322167Y-110874033D01*
X198322170Y-110874035D01*
X198536337Y-110973903D01*
X198536343Y-110973904D01*
X198536344Y-110973905D01*
X198591285Y-110988626D01*
X198764592Y-111035063D01*
X198952918Y-111051539D01*
X198999999Y-111055659D01*
X199000000Y-111055659D01*
X199000001Y-111055659D01*
X199043982Y-111051811D01*
X199235408Y-111035063D01*
X199463663Y-110973903D01*
X199677830Y-110874035D01*
X199871401Y-110738495D01*
X200038495Y-110571401D01*
X200168730Y-110385405D01*
X200223307Y-110341781D01*
X200292805Y-110334587D01*
X200355160Y-110366110D01*
X200371879Y-110385405D01*
X200501890Y-110571078D01*
X200668917Y-110738105D01*
X200862421Y-110873600D01*
X201076507Y-110973429D01*
X201076516Y-110973433D01*
X201290000Y-111030634D01*
X201290000Y-110133012D01*
X201347007Y-110165925D01*
X201474174Y-110200000D01*
X201605826Y-110200000D01*
X201732993Y-110165925D01*
X201790000Y-110133012D01*
X201790000Y-111030633D01*
X202003483Y-110973433D01*
X202003492Y-110973429D01*
X202217578Y-110873600D01*
X202411082Y-110738105D01*
X202578105Y-110571082D01*
X202713600Y-110377578D01*
X202813429Y-110163492D01*
X202813432Y-110163486D01*
X202870636Y-109950000D01*
X201973012Y-109950000D01*
X202005925Y-109892993D01*
X202040000Y-109765826D01*
X202040000Y-109634174D01*
X202005925Y-109507007D01*
X201973012Y-109450000D01*
X202870636Y-109450000D01*
X202870635Y-109449999D01*
X202813432Y-109236513D01*
X202813429Y-109236507D01*
X202713600Y-109022422D01*
X202713599Y-109022420D01*
X202578113Y-108828926D01*
X202578108Y-108828920D01*
X202411078Y-108661890D01*
X202225405Y-108531879D01*
X202181780Y-108477302D01*
X202174588Y-108407804D01*
X202206110Y-108345449D01*
X202225406Y-108328730D01*
X202226180Y-108328188D01*
X202411401Y-108198495D01*
X202578495Y-108031401D01*
X202714035Y-107837830D01*
X202813903Y-107623663D01*
X202875063Y-107395408D01*
X202895659Y-107160000D01*
X202893694Y-107137546D01*
X202884491Y-107032350D01*
X202875063Y-106924592D01*
X202813903Y-106696337D01*
X202714035Y-106482171D01*
X202708425Y-106474158D01*
X202578494Y-106288597D01*
X202411402Y-106121506D01*
X202411396Y-106121501D01*
X202225842Y-105991575D01*
X202182217Y-105936998D01*
X202175023Y-105867500D01*
X202206546Y-105805145D01*
X202225842Y-105788425D01*
X202248026Y-105772891D01*
X202411401Y-105658495D01*
X202578495Y-105491401D01*
X202714035Y-105297830D01*
X202813903Y-105083663D01*
X202875063Y-104855408D01*
X202895659Y-104620000D01*
X202875063Y-104384592D01*
X202813903Y-104156337D01*
X202714035Y-103942171D01*
X202708425Y-103934158D01*
X202578494Y-103748597D01*
X202411402Y-103581506D01*
X202411396Y-103581501D01*
X202225842Y-103451575D01*
X202182217Y-103396998D01*
X202175023Y-103327500D01*
X202206546Y-103265145D01*
X202225842Y-103248425D01*
X202248026Y-103232891D01*
X202411401Y-103118495D01*
X202578495Y-102951401D01*
X202714035Y-102757830D01*
X202813903Y-102543663D01*
X202875063Y-102315408D01*
X202895659Y-102080000D01*
X202875063Y-101844592D01*
X202813903Y-101616337D01*
X202714035Y-101402171D01*
X202708731Y-101394595D01*
X202578494Y-101208597D01*
X202411402Y-101041506D01*
X202411396Y-101041501D01*
X202225842Y-100911575D01*
X202182217Y-100856998D01*
X202175023Y-100787500D01*
X202206546Y-100725145D01*
X202225842Y-100708425D01*
X202305377Y-100652734D01*
X202411401Y-100578495D01*
X202578495Y-100411401D01*
X202714035Y-100217830D01*
X202813903Y-100003663D01*
X202875063Y-99775408D01*
X202895659Y-99540000D01*
X202875063Y-99304592D01*
X202813903Y-99076337D01*
X202714035Y-98862171D01*
X202708425Y-98854158D01*
X202578494Y-98668597D01*
X202411402Y-98501506D01*
X202411396Y-98501501D01*
X202225842Y-98371575D01*
X202182217Y-98316998D01*
X202175023Y-98247500D01*
X202206546Y-98185145D01*
X202225842Y-98168425D01*
X202248026Y-98152891D01*
X202411401Y-98038495D01*
X202578495Y-97871401D01*
X202714035Y-97677830D01*
X202813903Y-97463663D01*
X202875063Y-97235408D01*
X202895659Y-97000000D01*
X202875063Y-96764592D01*
X202813903Y-96536337D01*
X202714035Y-96322171D01*
X202708731Y-96314595D01*
X202578494Y-96128597D01*
X202411402Y-95961506D01*
X202411396Y-95961501D01*
X202225842Y-95831575D01*
X202182217Y-95776998D01*
X202175023Y-95707500D01*
X202206546Y-95645145D01*
X202225842Y-95628425D01*
X202248026Y-95612891D01*
X202411401Y-95498495D01*
X202578495Y-95331401D01*
X202714035Y-95137830D01*
X202813903Y-94923663D01*
X202875063Y-94695408D01*
X202895659Y-94460000D01*
X202875063Y-94224592D01*
X202824928Y-94037482D01*
X202813905Y-93996344D01*
X202813904Y-93996343D01*
X202813903Y-93996337D01*
X202714035Y-93782171D01*
X202708425Y-93774158D01*
X202578494Y-93588597D01*
X202411402Y-93421506D01*
X202411401Y-93421505D01*
X202225405Y-93291269D01*
X202181781Y-93236692D01*
X202174588Y-93167193D01*
X202206110Y-93104839D01*
X202225405Y-93088119D01*
X202411082Y-92958105D01*
X202578105Y-92791082D01*
X202713600Y-92597578D01*
X202813429Y-92383492D01*
X202813432Y-92383486D01*
X202870636Y-92170000D01*
X201973012Y-92170000D01*
X202005925Y-92112993D01*
X202040000Y-91985826D01*
X202040000Y-91854174D01*
X202005925Y-91727007D01*
X201973012Y-91670000D01*
X202870636Y-91670000D01*
X202870635Y-91669999D01*
X202813432Y-91456513D01*
X202813429Y-91456507D01*
X202713600Y-91242422D01*
X202713599Y-91242420D01*
X202578113Y-91048926D01*
X202578108Y-91048920D01*
X202411078Y-90881890D01*
X202225405Y-90751879D01*
X202181780Y-90697302D01*
X202174588Y-90627804D01*
X202206110Y-90565449D01*
X202225406Y-90548730D01*
X202225842Y-90548425D01*
X202411401Y-90418495D01*
X202578495Y-90251401D01*
X202714035Y-90057830D01*
X202813903Y-89843663D01*
X202875063Y-89615408D01*
X202895659Y-89380000D01*
X202875063Y-89144592D01*
X202813903Y-88916337D01*
X202714035Y-88702171D01*
X202708425Y-88694158D01*
X202578494Y-88508597D01*
X202411402Y-88341506D01*
X202411396Y-88341501D01*
X202225842Y-88211575D01*
X202182217Y-88156998D01*
X202175023Y-88087500D01*
X202206546Y-88025145D01*
X202225842Y-88008425D01*
X202327647Y-87937140D01*
X202411401Y-87878495D01*
X202578495Y-87711401D01*
X202714035Y-87517830D01*
X202813903Y-87303663D01*
X202875063Y-87075408D01*
X202895659Y-86840000D01*
X202875063Y-86604592D01*
X202813903Y-86376337D01*
X202714035Y-86162171D01*
X202710181Y-86156666D01*
X202578494Y-85968597D01*
X202411402Y-85801506D01*
X202411396Y-85801501D01*
X202225842Y-85671575D01*
X202182217Y-85616998D01*
X202175023Y-85547500D01*
X202206546Y-85485145D01*
X202225842Y-85468425D01*
X202248026Y-85452891D01*
X202411401Y-85338495D01*
X202578495Y-85171401D01*
X202714035Y-84977830D01*
X202813903Y-84763663D01*
X202875063Y-84535408D01*
X202895659Y-84300000D01*
X202875063Y-84064592D01*
X202813903Y-83836337D01*
X202714035Y-83622171D01*
X202710181Y-83616666D01*
X202578494Y-83428597D01*
X202411402Y-83261506D01*
X202411396Y-83261501D01*
X202225842Y-83131575D01*
X202182217Y-83076998D01*
X202175023Y-83007500D01*
X202206546Y-82945145D01*
X202225842Y-82928425D01*
X202248026Y-82912891D01*
X202411401Y-82798495D01*
X202578495Y-82631401D01*
X202714035Y-82437830D01*
X202813903Y-82223663D01*
X202875063Y-81995408D01*
X202895659Y-81760000D01*
X202875063Y-81524592D01*
X202813903Y-81296337D01*
X202714035Y-81082171D01*
X202710181Y-81076666D01*
X202578494Y-80888597D01*
X202411402Y-80721506D01*
X202411396Y-80721501D01*
X202225842Y-80591575D01*
X202182217Y-80536998D01*
X202175023Y-80467500D01*
X202206546Y-80405145D01*
X202225842Y-80388425D01*
X202248026Y-80372891D01*
X202411401Y-80258495D01*
X202578495Y-80091401D01*
X202714035Y-79897830D01*
X202813903Y-79683663D01*
X202875063Y-79455408D01*
X202895659Y-79220000D01*
X202875063Y-78984592D01*
X202813903Y-78756337D01*
X202714035Y-78542171D01*
X202710181Y-78536666D01*
X202578494Y-78348597D01*
X202411402Y-78181506D01*
X202411396Y-78181501D01*
X202225842Y-78051575D01*
X202182217Y-77996998D01*
X202175023Y-77927500D01*
X202206546Y-77865145D01*
X202225842Y-77848425D01*
X202327647Y-77777140D01*
X202411401Y-77718495D01*
X202578495Y-77551401D01*
X202714035Y-77357830D01*
X202813903Y-77143663D01*
X202875063Y-76915408D01*
X202895659Y-76680000D01*
X202875063Y-76444592D01*
X202813903Y-76216337D01*
X202714035Y-76002171D01*
X202708731Y-75994595D01*
X202578494Y-75808597D01*
X202411402Y-75641506D01*
X202411396Y-75641501D01*
X202225842Y-75511575D01*
X202182217Y-75456998D01*
X202175023Y-75387500D01*
X202206546Y-75325145D01*
X202225842Y-75308425D01*
X202248026Y-75292891D01*
X202411401Y-75178495D01*
X202413077Y-75176819D01*
X202413995Y-75176317D01*
X202415544Y-75175018D01*
X202415805Y-75175329D01*
X202474400Y-75143334D01*
X202500758Y-75140500D01*
X204674218Y-75140500D01*
X204741257Y-75160185D01*
X204761899Y-75176819D01*
X205963181Y-76378101D01*
X205996666Y-76439424D01*
X205999500Y-76465782D01*
X205999500Y-99783544D01*
X206037947Y-99976833D01*
X206037949Y-99976837D01*
X206060038Y-100030164D01*
X206113366Y-100158911D01*
X206113371Y-100158920D01*
X206222860Y-100322781D01*
X206222863Y-100322785D01*
X206366537Y-100466459D01*
X206366559Y-100466479D01*
X207803181Y-101903101D01*
X207836666Y-101964424D01*
X207839500Y-101990782D01*
X207839500Y-105002410D01*
X207819815Y-105069449D01*
X207817076Y-105073532D01*
X207709431Y-105227267D01*
X207613261Y-105433502D01*
X207613258Y-105433511D01*
X207554366Y-105653302D01*
X207554364Y-105653313D01*
X207534532Y-105879998D01*
X207534532Y-105880001D01*
X207554364Y-106106686D01*
X207554366Y-106106697D01*
X207613258Y-106326488D01*
X207613261Y-106326497D01*
X207709431Y-106532732D01*
X207709432Y-106532734D01*
X207839954Y-106719141D01*
X208000858Y-106880045D01*
X208000861Y-106880047D01*
X208187266Y-107010568D01*
X208393504Y-107106739D01*
X208613308Y-107165635D01*
X208775230Y-107179801D01*
X208839998Y-107185468D01*
X208840000Y-107185468D01*
X208840002Y-107185468D01*
X208896673Y-107180509D01*
X209066692Y-107165635D01*
X209286496Y-107106739D01*
X209492734Y-107010568D01*
X209679139Y-106880047D01*
X209840047Y-106719139D01*
X209970568Y-106532734D01*
X210066739Y-106326496D01*
X210125635Y-106106692D01*
X210145468Y-105880000D01*
X210145468Y-105879998D01*
X217694532Y-105879998D01*
X217694532Y-105880001D01*
X217714364Y-106106686D01*
X217714366Y-106106697D01*
X217773258Y-106326488D01*
X217773261Y-106326497D01*
X217869431Y-106532732D01*
X217869432Y-106532734D01*
X217999954Y-106719141D01*
X218160858Y-106880045D01*
X218160861Y-106880047D01*
X218347266Y-107010568D01*
X218553504Y-107106739D01*
X218773308Y-107165635D01*
X218935230Y-107179801D01*
X218999998Y-107185468D01*
X219000000Y-107185468D01*
X219000002Y-107185468D01*
X219056673Y-107180509D01*
X219226692Y-107165635D01*
X219446496Y-107106739D01*
X219652734Y-107010568D01*
X219806465Y-106902924D01*
X219872671Y-106880598D01*
X219877588Y-106880500D01*
X225042209Y-106880500D01*
X225109248Y-106900185D01*
X225155003Y-106952989D01*
X225158391Y-106961167D01*
X225181202Y-107022328D01*
X225181206Y-107022335D01*
X225267452Y-107137544D01*
X225267455Y-107137547D01*
X225382664Y-107223793D01*
X225382671Y-107223797D01*
X225517517Y-107274091D01*
X225517516Y-107274091D01*
X225524444Y-107274835D01*
X225577127Y-107280500D01*
X227472872Y-107280499D01*
X227532483Y-107274091D01*
X227667331Y-107223796D01*
X227782546Y-107137546D01*
X227868796Y-107022331D01*
X227919091Y-106887483D01*
X227925500Y-106827873D01*
X227925499Y-106717304D01*
X227945183Y-106650268D01*
X227961818Y-106629626D01*
X228622861Y-105968584D01*
X228645667Y-106053694D01*
X228704910Y-106156306D01*
X228788694Y-106240090D01*
X228891306Y-106299333D01*
X228976414Y-106322138D01*
X228266201Y-107032351D01*
X228296649Y-107056050D01*
X228500697Y-107166476D01*
X228500706Y-107166479D01*
X228720139Y-107241811D01*
X228948993Y-107280000D01*
X229181007Y-107280000D01*
X229409860Y-107241811D01*
X229629293Y-107166479D01*
X229629301Y-107166476D01*
X229833355Y-107056047D01*
X229863797Y-107032351D01*
X229863798Y-107032350D01*
X229153585Y-106322137D01*
X229238694Y-106299333D01*
X229341306Y-106240090D01*
X229425090Y-106156306D01*
X229484333Y-106053694D01*
X229507138Y-105968585D01*
X230216186Y-106677633D01*
X230300482Y-106548611D01*
X230393682Y-106336135D01*
X230450638Y-106111218D01*
X230469798Y-105880005D01*
X230469798Y-105879994D01*
X230450638Y-105648781D01*
X230393682Y-105423864D01*
X230300484Y-105211393D01*
X230216186Y-105082365D01*
X229507137Y-105791414D01*
X229484333Y-105706306D01*
X229425090Y-105603694D01*
X229341306Y-105519910D01*
X229238694Y-105460667D01*
X229153584Y-105437861D01*
X229863797Y-104727647D01*
X229863797Y-104727645D01*
X229833360Y-104703955D01*
X229833354Y-104703951D01*
X229629302Y-104593523D01*
X229629293Y-104593520D01*
X229409860Y-104518188D01*
X229181007Y-104480000D01*
X228948993Y-104480000D01*
X228720139Y-104518188D01*
X228500706Y-104593520D01*
X228500697Y-104593523D01*
X228296650Y-104703949D01*
X228266200Y-104727647D01*
X228976415Y-105437861D01*
X228891306Y-105460667D01*
X228788694Y-105519910D01*
X228704910Y-105603694D01*
X228645667Y-105706306D01*
X228622861Y-105791415D01*
X227961818Y-105130372D01*
X227928333Y-105069049D01*
X227925499Y-105042691D01*
X227925499Y-104932129D01*
X227925498Y-104932123D01*
X227919091Y-104872516D01*
X227868797Y-104737671D01*
X227868793Y-104737664D01*
X227782547Y-104622455D01*
X227782544Y-104622452D01*
X227667335Y-104536206D01*
X227667328Y-104536202D01*
X227532482Y-104485908D01*
X227532483Y-104485908D01*
X227472883Y-104479501D01*
X227472881Y-104479500D01*
X227472873Y-104479500D01*
X227472864Y-104479500D01*
X225577129Y-104479500D01*
X225577123Y-104479501D01*
X225517516Y-104485908D01*
X225382671Y-104536202D01*
X225382664Y-104536206D01*
X225267455Y-104622452D01*
X225267452Y-104622455D01*
X225181206Y-104737664D01*
X225181202Y-104737671D01*
X225158391Y-104798833D01*
X225116520Y-104854767D01*
X225051056Y-104879184D01*
X225042209Y-104879500D01*
X219877588Y-104879500D01*
X219810549Y-104859815D01*
X219806465Y-104857075D01*
X219804091Y-104855413D01*
X219652734Y-104749432D01*
X219627513Y-104737671D01*
X219446497Y-104653261D01*
X219446488Y-104653258D01*
X219226697Y-104594366D01*
X219226693Y-104594365D01*
X219226692Y-104594365D01*
X219226691Y-104594364D01*
X219226686Y-104594364D01*
X219000002Y-104574532D01*
X218999998Y-104574532D01*
X218773313Y-104594364D01*
X218773302Y-104594366D01*
X218553511Y-104653258D01*
X218553502Y-104653261D01*
X218347267Y-104749431D01*
X218347265Y-104749432D01*
X218160858Y-104879954D01*
X217999954Y-105040858D01*
X217869432Y-105227265D01*
X217869431Y-105227267D01*
X217773261Y-105433502D01*
X217773258Y-105433511D01*
X217714366Y-105653302D01*
X217714364Y-105653313D01*
X217694532Y-105879998D01*
X210145468Y-105879998D01*
X210145467Y-105879994D01*
X210136469Y-105777139D01*
X210125635Y-105653308D01*
X210066739Y-105433504D01*
X209970568Y-105227266D01*
X209884239Y-105103974D01*
X209862924Y-105073532D01*
X209840597Y-105007326D01*
X209840500Y-105002410D01*
X209840500Y-101426456D01*
X209840499Y-101426454D01*
X209802053Y-101233175D01*
X209802052Y-101233174D01*
X209802051Y-101233165D01*
X209799389Y-101226739D01*
X209738401Y-101079500D01*
X209726632Y-101051086D01*
X209633618Y-100911880D01*
X209617139Y-100887217D01*
X209474686Y-100744764D01*
X209474655Y-100744735D01*
X208036819Y-99306899D01*
X208003334Y-99245576D01*
X208000500Y-99219218D01*
X208000500Y-94549994D01*
X213738602Y-94549994D01*
X213738602Y-94550005D01*
X213759128Y-94797729D01*
X213759130Y-94797738D01*
X213820155Y-95038717D01*
X213920009Y-95266364D01*
X214020307Y-95419882D01*
X214719955Y-94720234D01*
X214731225Y-94762292D01*
X214803633Y-94887708D01*
X214906035Y-94990110D01*
X215031451Y-95062518D01*
X215073508Y-95073787D01*
X214373685Y-95773609D01*
X214420511Y-95810055D01*
X214420513Y-95810056D01*
X214639128Y-95928364D01*
X214639139Y-95928369D01*
X214874249Y-96009083D01*
X215119450Y-96050000D01*
X215368036Y-96050000D01*
X215613236Y-96009083D01*
X215848346Y-95928369D01*
X215848357Y-95928364D01*
X216066971Y-95810057D01*
X216066974Y-95810055D01*
X216113799Y-95773609D01*
X215413977Y-95073787D01*
X215456035Y-95062518D01*
X215581451Y-94990110D01*
X215683853Y-94887708D01*
X215756261Y-94762292D01*
X215767530Y-94720235D01*
X216467177Y-95419882D01*
X216567474Y-95266369D01*
X216667330Y-95038717D01*
X216728355Y-94797738D01*
X216728357Y-94797729D01*
X216748884Y-94550005D01*
X216748884Y-94549994D01*
X218738100Y-94549994D01*
X218738100Y-94550005D01*
X218758633Y-94797812D01*
X218758635Y-94797824D01*
X218819679Y-95038881D01*
X218919569Y-95266606D01*
X219055576Y-95474782D01*
X219055579Y-95474785D01*
X219223999Y-95657738D01*
X219420234Y-95810474D01*
X219448859Y-95825965D01*
X219638075Y-95928364D01*
X219638933Y-95928828D01*
X219857884Y-96003994D01*
X219872707Y-96009083D01*
X219874129Y-96009571D01*
X220119408Y-96050500D01*
X220368078Y-96050500D01*
X220613357Y-96009571D01*
X220848553Y-95928828D01*
X221067252Y-95810474D01*
X221263487Y-95657738D01*
X221431907Y-95474785D01*
X221567916Y-95266607D01*
X221667806Y-95038881D01*
X221728851Y-94797821D01*
X221749386Y-94550000D01*
X221741928Y-94460000D01*
X221728852Y-94302187D01*
X221728850Y-94302175D01*
X221667806Y-94061118D01*
X221567916Y-93833393D01*
X221431909Y-93625217D01*
X221398198Y-93588597D01*
X221263487Y-93442262D01*
X221067252Y-93289526D01*
X221067250Y-93289525D01*
X221067249Y-93289524D01*
X220848554Y-93171172D01*
X220848545Y-93171169D01*
X220613359Y-93090429D01*
X220368078Y-93049500D01*
X220119408Y-93049500D01*
X219874126Y-93090429D01*
X219638940Y-93171169D01*
X219638931Y-93171172D01*
X219420236Y-93289524D01*
X219224000Y-93442261D01*
X219055576Y-93625217D01*
X218919569Y-93833393D01*
X218819679Y-94061118D01*
X218758635Y-94302175D01*
X218758633Y-94302187D01*
X218738100Y-94549994D01*
X216748884Y-94549994D01*
X216728357Y-94302270D01*
X216728355Y-94302261D01*
X216667330Y-94061282D01*
X216567474Y-93833630D01*
X216467177Y-93680116D01*
X215767530Y-94379764D01*
X215756261Y-94337708D01*
X215683853Y-94212292D01*
X215581451Y-94109890D01*
X215456035Y-94037482D01*
X215413978Y-94026212D01*
X216113800Y-93326390D01*
X216113799Y-93326389D01*
X216066972Y-93289943D01*
X215848357Y-93171635D01*
X215848346Y-93171630D01*
X215613236Y-93090916D01*
X215368036Y-93050000D01*
X215119450Y-93050000D01*
X214874249Y-93090916D01*
X214639139Y-93171630D01*
X214639133Y-93171632D01*
X214420504Y-93289949D01*
X214373685Y-93326388D01*
X214373685Y-93326390D01*
X215073508Y-94026212D01*
X215031451Y-94037482D01*
X214906035Y-94109890D01*
X214803633Y-94212292D01*
X214731225Y-94337708D01*
X214719955Y-94379764D01*
X214020307Y-93680116D01*
X213920010Y-93833632D01*
X213820155Y-94061282D01*
X213759130Y-94302261D01*
X213759128Y-94302270D01*
X213738602Y-94549994D01*
X208000500Y-94549994D01*
X208000500Y-75901456D01*
X207962052Y-75708170D01*
X207962051Y-75708169D01*
X207962051Y-75708165D01*
X207926530Y-75622409D01*
X207886635Y-75526092D01*
X207886628Y-75526079D01*
X207777139Y-75362218D01*
X207777136Y-75362214D01*
X207634686Y-75219764D01*
X207634655Y-75219735D01*
X205637784Y-73222863D01*
X205637780Y-73222860D01*
X205473920Y-73113372D01*
X205473910Y-73113367D01*
X205291836Y-73037949D01*
X205291828Y-73037947D01*
X205098543Y-72999500D01*
X205098540Y-72999500D01*
X204901460Y-72999500D01*
X204901457Y-72999500D01*
X204708171Y-73037947D01*
X204708163Y-73037949D01*
X204526089Y-73113367D01*
X204526076Y-73113374D01*
X204518256Y-73118600D01*
X204451580Y-73139480D01*
X204449363Y-73139500D01*
X202500758Y-73139500D01*
X202433719Y-73119815D01*
X202413077Y-73103181D01*
X202411402Y-73101506D01*
X202411401Y-73101505D01*
X202225405Y-72971269D01*
X202181781Y-72916692D01*
X202174588Y-72847193D01*
X202206110Y-72784839D01*
X202225405Y-72768119D01*
X202411082Y-72638105D01*
X202578105Y-72471082D01*
X202713600Y-72277578D01*
X202813429Y-72063492D01*
X202813432Y-72063486D01*
X202870636Y-71850000D01*
X201973012Y-71850000D01*
X202005925Y-71792993D01*
X202040000Y-71665826D01*
X202040000Y-71534174D01*
X202005925Y-71407007D01*
X201973012Y-71350000D01*
X202870636Y-71350000D01*
X202870635Y-71349999D01*
X202813432Y-71136513D01*
X202813429Y-71136507D01*
X202713600Y-70922422D01*
X202713599Y-70922420D01*
X202578113Y-70728926D01*
X202578108Y-70728920D01*
X202411078Y-70561890D01*
X202225405Y-70431879D01*
X202181780Y-70377302D01*
X202174588Y-70307804D01*
X202206110Y-70245449D01*
X202225406Y-70228730D01*
X202238252Y-70219735D01*
X202411401Y-70098495D01*
X202578495Y-69931401D01*
X202714035Y-69737830D01*
X202813903Y-69523663D01*
X202875063Y-69295408D01*
X202895659Y-69060000D01*
X202875063Y-68824592D01*
X202813903Y-68596337D01*
X202714035Y-68382171D01*
X202708425Y-68374158D01*
X202578494Y-68188597D01*
X202411402Y-68021506D01*
X202411396Y-68021501D01*
X202225842Y-67891575D01*
X202182217Y-67836998D01*
X202175023Y-67767500D01*
X202206546Y-67705145D01*
X202225842Y-67688425D01*
X202248026Y-67672891D01*
X202411401Y-67558495D01*
X202413077Y-67556819D01*
X202413995Y-67556317D01*
X202415544Y-67555018D01*
X202415805Y-67555329D01*
X202474400Y-67523334D01*
X202500758Y-67520500D01*
X203054218Y-67520500D01*
X203121257Y-67540185D01*
X203141899Y-67556819D01*
X208963181Y-73378101D01*
X208996666Y-73439424D01*
X208999500Y-73465782D01*
X208999500Y-86098544D01*
X209034274Y-86273365D01*
X209037948Y-86291832D01*
X209037950Y-86291840D01*
X209113364Y-86473907D01*
X209113371Y-86473920D01*
X209222860Y-86637781D01*
X209222863Y-86637785D01*
X209366537Y-86781459D01*
X209366559Y-86781479D01*
X212769735Y-90184655D01*
X212769764Y-90184686D01*
X212912214Y-90327136D01*
X212912218Y-90327139D01*
X213076079Y-90436628D01*
X213076092Y-90436635D01*
X213204833Y-90489961D01*
X213247744Y-90507735D01*
X213258164Y-90512051D01*
X213354812Y-90531275D01*
X213403135Y-90540887D01*
X213451458Y-90550500D01*
X213451459Y-90550500D01*
X213451460Y-90550500D01*
X213648540Y-90550500D01*
X214070888Y-90550500D01*
X214137927Y-90570185D01*
X214162117Y-90590517D01*
X214223763Y-90657482D01*
X214223999Y-90657738D01*
X214420234Y-90810474D01*
X214638933Y-90928828D01*
X214874129Y-91009571D01*
X215119408Y-91050500D01*
X215368078Y-91050500D01*
X215613357Y-91009571D01*
X215848553Y-90928828D01*
X216067252Y-90810474D01*
X216263487Y-90657738D01*
X216431907Y-90474785D01*
X216567916Y-90266607D01*
X216667806Y-90038881D01*
X216728851Y-89797821D01*
X216743966Y-89615413D01*
X216749386Y-89550005D01*
X216749386Y-89549994D01*
X218738100Y-89549994D01*
X218738100Y-89550005D01*
X218758633Y-89797812D01*
X218758635Y-89797824D01*
X218819679Y-90038881D01*
X218919569Y-90266606D01*
X219055576Y-90474782D01*
X219055579Y-90474785D01*
X219223999Y-90657738D01*
X219420234Y-90810474D01*
X219638933Y-90928828D01*
X219874129Y-91009571D01*
X220119408Y-91050500D01*
X220368078Y-91050500D01*
X220613357Y-91009571D01*
X220848553Y-90928828D01*
X221067252Y-90810474D01*
X221263487Y-90657738D01*
X221431907Y-90474785D01*
X221567916Y-90266607D01*
X221667806Y-90038881D01*
X221728851Y-89797821D01*
X221743966Y-89615413D01*
X221749386Y-89550005D01*
X221749386Y-89549994D01*
X221728852Y-89302187D01*
X221728850Y-89302175D01*
X221667806Y-89061118D01*
X221567916Y-88833393D01*
X221431909Y-88625217D01*
X221344085Y-88529815D01*
X221263487Y-88442262D01*
X221067252Y-88289526D01*
X221067250Y-88289525D01*
X221067249Y-88289524D01*
X220848554Y-88171172D01*
X220848545Y-88171169D01*
X220613359Y-88090429D01*
X220368078Y-88049500D01*
X220119408Y-88049500D01*
X219874126Y-88090429D01*
X219638940Y-88171169D01*
X219638931Y-88171172D01*
X219420236Y-88289524D01*
X219224000Y-88442261D01*
X219055576Y-88625217D01*
X218919569Y-88833393D01*
X218819679Y-89061118D01*
X218758635Y-89302175D01*
X218758633Y-89302187D01*
X218738100Y-89549994D01*
X216749386Y-89549994D01*
X216728852Y-89302187D01*
X216728850Y-89302175D01*
X216667806Y-89061118D01*
X216567916Y-88833393D01*
X216508543Y-88742516D01*
X216431907Y-88625215D01*
X216415750Y-88607664D01*
X216277013Y-88456953D01*
X216246091Y-88394299D01*
X216244243Y-88372971D01*
X216244243Y-85222039D01*
X216263928Y-85155000D01*
X216280562Y-85134358D01*
X217378101Y-84036819D01*
X217439424Y-84003334D01*
X217465782Y-84000500D01*
X219042412Y-84000500D01*
X219109451Y-84020185D01*
X219113523Y-84022917D01*
X219267266Y-84130568D01*
X219473504Y-84226739D01*
X219693308Y-84285635D01*
X219855230Y-84299801D01*
X219919998Y-84305468D01*
X219920000Y-84305468D01*
X219920002Y-84305468D01*
X219982511Y-84299999D01*
X220146692Y-84285635D01*
X220366496Y-84226739D01*
X220572734Y-84130568D01*
X220759139Y-84000047D01*
X220920047Y-83839139D01*
X221050568Y-83652734D01*
X221146739Y-83446496D01*
X221205635Y-83226692D01*
X221225468Y-83000000D01*
X221205635Y-82773308D01*
X221146739Y-82553504D01*
X221050568Y-82347266D01*
X220920047Y-82160861D01*
X220920045Y-82160858D01*
X220759141Y-81999954D01*
X220572734Y-81869432D01*
X220572732Y-81869431D01*
X220366497Y-81773261D01*
X220366488Y-81773258D01*
X220146697Y-81714366D01*
X220146693Y-81714365D01*
X220146692Y-81714365D01*
X220146691Y-81714364D01*
X220146686Y-81714364D01*
X219920002Y-81694532D01*
X219919998Y-81694532D01*
X219693313Y-81714364D01*
X219693302Y-81714366D01*
X219473511Y-81773258D01*
X219473502Y-81773261D01*
X219267267Y-81869431D01*
X219267265Y-81869432D01*
X219113535Y-81977075D01*
X219047329Y-81999402D01*
X219042412Y-81999500D01*
X216901455Y-81999500D01*
X216804812Y-82018724D01*
X216708167Y-82037947D01*
X216708161Y-82037949D01*
X216654834Y-82060037D01*
X216654834Y-82060038D01*
X216609315Y-82078892D01*
X216526089Y-82113366D01*
X216526079Y-82113371D01*
X216362219Y-82222859D01*
X216292540Y-82292538D01*
X216222861Y-82362218D01*
X216222858Y-82362221D01*
X214362219Y-84222861D01*
X214299447Y-84285633D01*
X214222859Y-84362220D01*
X214113372Y-84526079D01*
X214113367Y-84526089D01*
X214037949Y-84708163D01*
X214037947Y-84708171D01*
X213999500Y-84901455D01*
X213999500Y-85098544D01*
X214037947Y-85291828D01*
X214037949Y-85291836D01*
X214113367Y-85473910D01*
X214113372Y-85473920D01*
X214222345Y-85637009D01*
X214243223Y-85703687D01*
X214243243Y-85705900D01*
X214243243Y-88372972D01*
X214223558Y-88440011D01*
X214210473Y-88456955D01*
X214162118Y-88509483D01*
X214102231Y-88545473D01*
X214070888Y-88549500D01*
X214015782Y-88549500D01*
X213948743Y-88529815D01*
X213928101Y-88513181D01*
X211036819Y-85621899D01*
X211003334Y-85560576D01*
X211000500Y-85534218D01*
X211000500Y-75549994D01*
X213738602Y-75549994D01*
X213738602Y-75550005D01*
X213759128Y-75797729D01*
X213759130Y-75797738D01*
X213820155Y-76038717D01*
X213920009Y-76266364D01*
X214020307Y-76419882D01*
X214719955Y-75720234D01*
X214731225Y-75762292D01*
X214803633Y-75887708D01*
X214906035Y-75990110D01*
X215031451Y-76062518D01*
X215073508Y-76073787D01*
X214373685Y-76773609D01*
X214420511Y-76810055D01*
X214420513Y-76810056D01*
X214639128Y-76928364D01*
X214639139Y-76928369D01*
X214874249Y-77009083D01*
X215119450Y-77050000D01*
X215368036Y-77050000D01*
X215613236Y-77009083D01*
X215848346Y-76928369D01*
X215848357Y-76928364D01*
X216066971Y-76810057D01*
X216066974Y-76810055D01*
X216113799Y-76773609D01*
X215413977Y-76073787D01*
X215456035Y-76062518D01*
X215581451Y-75990110D01*
X215683853Y-75887708D01*
X215756261Y-75762292D01*
X215767530Y-75720235D01*
X216467177Y-76419882D01*
X216567474Y-76266369D01*
X216667330Y-76038717D01*
X216728355Y-75797738D01*
X216728357Y-75797729D01*
X216748884Y-75550005D01*
X216748884Y-75549994D01*
X218738100Y-75549994D01*
X218738100Y-75550005D01*
X218758633Y-75797812D01*
X218758635Y-75797824D01*
X218819679Y-76038881D01*
X218919569Y-76266606D01*
X219055576Y-76474782D01*
X219055579Y-76474785D01*
X219223999Y-76657738D01*
X219420234Y-76810474D01*
X219420236Y-76810475D01*
X219638075Y-76928364D01*
X219638933Y-76928828D01*
X219846247Y-76999999D01*
X219872707Y-77009083D01*
X219874129Y-77009571D01*
X220119408Y-77050500D01*
X220368078Y-77050500D01*
X220613357Y-77009571D01*
X220848553Y-76928828D01*
X221067252Y-76810474D01*
X221263487Y-76657738D01*
X221431907Y-76474785D01*
X221567916Y-76266607D01*
X221667806Y-76038881D01*
X221728851Y-75797821D01*
X221736281Y-75708160D01*
X221749386Y-75550005D01*
X221749386Y-75549994D01*
X221728852Y-75302187D01*
X221728850Y-75302175D01*
X221667806Y-75061118D01*
X221567916Y-74833393D01*
X221431909Y-74625217D01*
X221410300Y-74601744D01*
X221263487Y-74442262D01*
X221067252Y-74289526D01*
X221067250Y-74289525D01*
X221067249Y-74289524D01*
X220848554Y-74171172D01*
X220848545Y-74171169D01*
X220613359Y-74090429D01*
X220368078Y-74049500D01*
X220119408Y-74049500D01*
X219874126Y-74090429D01*
X219638940Y-74171169D01*
X219638931Y-74171172D01*
X219420236Y-74289524D01*
X219224000Y-74442261D01*
X219055576Y-74625217D01*
X218919569Y-74833393D01*
X218819679Y-75061118D01*
X218758635Y-75302175D01*
X218758633Y-75302187D01*
X218738100Y-75549994D01*
X216748884Y-75549994D01*
X216728357Y-75302270D01*
X216728355Y-75302261D01*
X216667330Y-75061282D01*
X216567474Y-74833630D01*
X216467177Y-74680116D01*
X215767530Y-75379764D01*
X215756261Y-75337708D01*
X215683853Y-75212292D01*
X215581451Y-75109890D01*
X215456035Y-75037482D01*
X215413978Y-75026212D01*
X216113800Y-74326390D01*
X216113799Y-74326389D01*
X216066972Y-74289943D01*
X215848357Y-74171635D01*
X215848346Y-74171630D01*
X215613236Y-74090916D01*
X215368036Y-74050000D01*
X215119450Y-74050000D01*
X214874249Y-74090916D01*
X214639139Y-74171630D01*
X214639133Y-74171632D01*
X214420504Y-74289949D01*
X214373685Y-74326388D01*
X214373685Y-74326390D01*
X215073508Y-75026212D01*
X215031451Y-75037482D01*
X214906035Y-75109890D01*
X214803633Y-75212292D01*
X214731225Y-75337708D01*
X214719955Y-75379764D01*
X214020307Y-74680116D01*
X213920010Y-74833632D01*
X213820155Y-75061282D01*
X213759130Y-75302261D01*
X213759128Y-75302270D01*
X213738602Y-75549994D01*
X211000500Y-75549994D01*
X211000500Y-72901456D01*
X210962052Y-72708170D01*
X210962051Y-72708169D01*
X210962051Y-72708165D01*
X210933192Y-72638493D01*
X210886635Y-72526092D01*
X210886628Y-72526079D01*
X210777139Y-72362218D01*
X210777136Y-72362214D01*
X210634686Y-72219764D01*
X210634655Y-72219735D01*
X204301479Y-65886559D01*
X204301459Y-65886537D01*
X204157785Y-65742863D01*
X204157781Y-65742860D01*
X203993920Y-65633371D01*
X203993911Y-65633366D01*
X203921315Y-65603296D01*
X203865165Y-65580038D01*
X203811836Y-65557949D01*
X203811832Y-65557948D01*
X203811828Y-65557946D01*
X203715188Y-65538724D01*
X203618544Y-65519500D01*
X203618541Y-65519500D01*
X202500758Y-65519500D01*
X202433719Y-65499815D01*
X202413077Y-65483181D01*
X202411402Y-65481506D01*
X202411396Y-65481501D01*
X202225842Y-65351575D01*
X202182217Y-65296998D01*
X202175023Y-65227500D01*
X202206546Y-65165145D01*
X202225842Y-65148425D01*
X202248026Y-65132891D01*
X202411401Y-65018495D01*
X202413077Y-65016819D01*
X202413995Y-65016317D01*
X202415544Y-65015018D01*
X202415805Y-65015329D01*
X202474400Y-64983334D01*
X202500758Y-64980500D01*
X207514218Y-64980500D01*
X207581257Y-65000185D01*
X207601899Y-65016819D01*
X208963181Y-66378101D01*
X208996666Y-66439424D01*
X208999500Y-66465782D01*
X208999500Y-69078541D01*
X208999500Y-69078543D01*
X208999499Y-69078543D01*
X209037947Y-69271829D01*
X209037950Y-69271839D01*
X209113364Y-69453907D01*
X209113371Y-69453920D01*
X209222859Y-69617780D01*
X209222860Y-69617781D01*
X209222861Y-69617782D01*
X209362218Y-69757139D01*
X209362219Y-69757139D01*
X209369286Y-69764206D01*
X209369285Y-69764206D01*
X209369288Y-69764208D01*
X210792860Y-71187781D01*
X210792861Y-71187782D01*
X210871685Y-71266606D01*
X210932219Y-71327140D01*
X211096079Y-71436628D01*
X211096092Y-71436635D01*
X211224833Y-71489961D01*
X211267744Y-71507735D01*
X211278164Y-71512051D01*
X211374812Y-71531275D01*
X211389386Y-71534174D01*
X211471458Y-71550500D01*
X211471459Y-71550500D01*
X211471460Y-71550500D01*
X211668540Y-71550500D01*
X214070888Y-71550500D01*
X214137927Y-71570185D01*
X214162117Y-71590517D01*
X214223995Y-71657734D01*
X214223999Y-71657738D01*
X214420234Y-71810474D01*
X214638933Y-71928828D01*
X214874129Y-72009571D01*
X215119408Y-72050500D01*
X215368078Y-72050500D01*
X215613357Y-72009571D01*
X215848553Y-71928828D01*
X216067252Y-71810474D01*
X216263487Y-71657738D01*
X216431907Y-71474785D01*
X216567916Y-71266607D01*
X216667806Y-71038881D01*
X216728851Y-70797821D01*
X216734560Y-70728922D01*
X216749386Y-70550005D01*
X216749386Y-70549994D01*
X218738100Y-70549994D01*
X218738100Y-70550005D01*
X218758633Y-70797812D01*
X218758635Y-70797824D01*
X218819679Y-71038881D01*
X218919569Y-71266606D01*
X219055576Y-71474782D01*
X219055579Y-71474785D01*
X219223999Y-71657738D01*
X219420234Y-71810474D01*
X219638933Y-71928828D01*
X219874129Y-72009571D01*
X220119408Y-72050500D01*
X220368078Y-72050500D01*
X220613357Y-72009571D01*
X220848553Y-71928828D01*
X221067252Y-71810474D01*
X221263487Y-71657738D01*
X221431907Y-71474785D01*
X221567916Y-71266607D01*
X221667806Y-71038881D01*
X221728851Y-70797821D01*
X221734560Y-70728922D01*
X221749386Y-70550005D01*
X221749386Y-70549994D01*
X221728852Y-70302187D01*
X221728850Y-70302175D01*
X221667806Y-70061118D01*
X221567916Y-69833393D01*
X221431909Y-69625217D01*
X221344085Y-69529815D01*
X221263487Y-69442262D01*
X221067252Y-69289526D01*
X221067250Y-69289525D01*
X221067249Y-69289524D01*
X220848554Y-69171172D01*
X220848545Y-69171169D01*
X220613359Y-69090429D01*
X220368078Y-69049500D01*
X220119408Y-69049500D01*
X219874126Y-69090429D01*
X219638940Y-69171169D01*
X219638931Y-69171172D01*
X219420236Y-69289524D01*
X219224000Y-69442261D01*
X219055576Y-69625217D01*
X218919569Y-69833393D01*
X218819679Y-70061118D01*
X218758635Y-70302175D01*
X218758633Y-70302187D01*
X218738100Y-70549994D01*
X216749386Y-70549994D01*
X216728852Y-70302187D01*
X216728850Y-70302175D01*
X216667806Y-70061118D01*
X216567916Y-69833393D01*
X216522714Y-69764206D01*
X216431907Y-69625215D01*
X216425063Y-69617780D01*
X216277013Y-69456953D01*
X216246091Y-69394299D01*
X216244243Y-69372971D01*
X216244243Y-68142038D01*
X216263928Y-68074999D01*
X216280557Y-68054362D01*
X220008033Y-64326885D01*
X220069354Y-64293402D01*
X220084898Y-64291041D01*
X220146692Y-64285635D01*
X220366496Y-64226739D01*
X220572734Y-64130568D01*
X220759139Y-64000047D01*
X220920047Y-63839139D01*
X221050568Y-63652734D01*
X221146739Y-63446496D01*
X221205635Y-63226692D01*
X221225468Y-63000000D01*
X221225356Y-62998724D01*
X221217766Y-62911967D01*
X221205635Y-62773308D01*
X221146739Y-62553504D01*
X221050568Y-62347266D01*
X220920047Y-62160861D01*
X220920045Y-62160858D01*
X220759141Y-61999954D01*
X220572734Y-61869432D01*
X220572732Y-61869431D01*
X220366497Y-61773261D01*
X220366488Y-61773258D01*
X220146697Y-61714366D01*
X220146693Y-61714365D01*
X220146692Y-61714365D01*
X220146691Y-61714364D01*
X220146686Y-61714364D01*
X219920002Y-61694532D01*
X219919998Y-61694532D01*
X219693313Y-61714364D01*
X219693302Y-61714366D01*
X219473511Y-61773258D01*
X219473502Y-61773261D01*
X219267267Y-61869431D01*
X219267265Y-61869432D01*
X219080858Y-61999954D01*
X218919954Y-62160858D01*
X218789432Y-62347265D01*
X218789431Y-62347267D01*
X218693261Y-62553502D01*
X218693258Y-62553511D01*
X218634366Y-62773302D01*
X218634364Y-62773311D01*
X218628958Y-62835096D01*
X218603504Y-62900164D01*
X218593111Y-62911967D01*
X216524579Y-64980500D01*
X214605964Y-66899115D01*
X214605961Y-66899118D01*
X214536281Y-66968797D01*
X214466602Y-67038476D01*
X214357114Y-67202337D01*
X214357107Y-67202350D01*
X214317846Y-67297138D01*
X214317846Y-67297139D01*
X214286906Y-67371835D01*
X214282770Y-67381818D01*
X214281691Y-67384424D01*
X214281690Y-67384427D01*
X214243243Y-67577711D01*
X214243243Y-69372972D01*
X214223558Y-69440011D01*
X214210473Y-69456955D01*
X214162118Y-69509483D01*
X214102231Y-69545473D01*
X214070888Y-69549500D01*
X212035783Y-69549500D01*
X211968744Y-69529815D01*
X211948102Y-69513181D01*
X211036819Y-68601898D01*
X211003334Y-68540575D01*
X211000500Y-68514217D01*
X211000500Y-65901456D01*
X210962052Y-65708170D01*
X210962051Y-65708169D01*
X210962051Y-65708165D01*
X210931071Y-65633371D01*
X210886635Y-65526092D01*
X210886628Y-65526079D01*
X210777140Y-65362219D01*
X210711919Y-65296998D01*
X210637782Y-65222861D01*
X210637781Y-65222860D01*
X208764208Y-63349288D01*
X208764206Y-63349285D01*
X208764206Y-63349286D01*
X208757139Y-63342219D01*
X208757139Y-63342218D01*
X208617782Y-63202861D01*
X208617781Y-63202860D01*
X208617780Y-63202859D01*
X208453920Y-63093371D01*
X208453911Y-63093366D01*
X208355639Y-63052661D01*
X208325165Y-63040038D01*
X208271836Y-63017949D01*
X208271832Y-63017948D01*
X208271828Y-63017946D01*
X208175188Y-62998724D01*
X208078544Y-62979500D01*
X208078541Y-62979500D01*
X202660860Y-62979500D01*
X202593821Y-62959815D01*
X202548066Y-62907011D01*
X202538122Y-62837853D01*
X202567147Y-62774297D01*
X202617527Y-62739318D01*
X202632328Y-62733797D01*
X202632327Y-62733797D01*
X202632331Y-62733796D01*
X202747546Y-62647546D01*
X202833796Y-62532331D01*
X202837960Y-62521165D01*
X202879829Y-62465234D01*
X202945293Y-62440816D01*
X202954141Y-62440500D01*
X214658542Y-62440500D01*
X214677870Y-62436655D01*
X214755188Y-62421275D01*
X214851836Y-62402051D01*
X214905165Y-62379961D01*
X215033914Y-62326632D01*
X215197782Y-62217139D01*
X215337139Y-62077782D01*
X215337140Y-62077779D01*
X215344206Y-62070714D01*
X215344208Y-62070710D01*
X219378101Y-58036819D01*
X219439424Y-58003334D01*
X219465782Y-58000500D01*
X226534218Y-58000500D01*
X226601257Y-58020185D01*
X226621899Y-58036819D01*
X229043181Y-60458101D01*
X229076666Y-60519424D01*
X229079500Y-60545782D01*
X229079500Y-62122410D01*
X229059815Y-62189449D01*
X229057076Y-62193532D01*
X228949431Y-62347267D01*
X228853261Y-62553502D01*
X228853258Y-62553511D01*
X228794366Y-62773302D01*
X228794364Y-62773313D01*
X228774532Y-62999998D01*
X228774532Y-63000001D01*
X228794364Y-63226686D01*
X228794366Y-63226697D01*
X228853258Y-63446488D01*
X228853261Y-63446497D01*
X228949431Y-63652732D01*
X228949432Y-63652734D01*
X229057075Y-63806465D01*
X229079402Y-63872671D01*
X229079500Y-63877588D01*
X229079500Y-82122410D01*
X229059815Y-82189449D01*
X229057076Y-82193532D01*
X228949431Y-82347267D01*
X228853261Y-82553502D01*
X228853258Y-82553511D01*
X228794366Y-82773302D01*
X228794364Y-82773313D01*
X228774532Y-82999998D01*
X228774532Y-83000001D01*
X228794364Y-83226686D01*
X228794366Y-83226697D01*
X228853258Y-83446488D01*
X228853261Y-83446497D01*
X228949431Y-83652732D01*
X228949432Y-83652734D01*
X229079954Y-83839141D01*
X229240858Y-84000045D01*
X229240861Y-84000047D01*
X229427266Y-84130568D01*
X229633504Y-84226739D01*
X229853308Y-84285635D01*
X230015230Y-84299801D01*
X230079998Y-84305468D01*
X230080000Y-84305468D01*
X230080002Y-84305468D01*
X230142511Y-84299999D01*
X230306692Y-84285635D01*
X230526496Y-84226739D01*
X230732734Y-84130568D01*
X230919139Y-84000047D01*
X231080047Y-83839139D01*
X231210568Y-83652734D01*
X231306739Y-83446496D01*
X231365635Y-83226692D01*
X231385468Y-83000000D01*
X231365635Y-82773308D01*
X231306739Y-82553504D01*
X231210568Y-82347266D01*
X231102924Y-82193532D01*
X231080597Y-82127326D01*
X231080500Y-82122410D01*
X231080500Y-63877588D01*
X231100185Y-63810549D01*
X231102925Y-63806465D01*
X231210568Y-63652734D01*
X231306739Y-63446496D01*
X231365635Y-63226692D01*
X231385468Y-63000000D01*
X231385356Y-62998724D01*
X231377766Y-62911967D01*
X231365635Y-62773308D01*
X231306739Y-62553504D01*
X231210568Y-62347266D01*
X231102924Y-62193532D01*
X231080597Y-62127326D01*
X231080500Y-62122410D01*
X231080500Y-59981456D01*
X231042052Y-59788170D01*
X231042051Y-59788169D01*
X231042051Y-59788165D01*
X231042049Y-59788160D01*
X230966635Y-59606092D01*
X230966628Y-59606079D01*
X230857140Y-59442219D01*
X230857139Y-59442218D01*
X230717782Y-59302861D01*
X230717781Y-59302860D01*
X227784208Y-56369288D01*
X227784206Y-56369285D01*
X227784206Y-56369286D01*
X227777139Y-56362219D01*
X227777139Y-56362218D01*
X227637782Y-56222861D01*
X227637781Y-56222860D01*
X227637780Y-56222859D01*
X227473920Y-56113371D01*
X227473911Y-56113366D01*
X227385296Y-56076661D01*
X227345165Y-56060038D01*
X227291836Y-56037949D01*
X227291832Y-56037948D01*
X227291828Y-56037946D01*
X227195188Y-56018724D01*
X227098544Y-55999500D01*
X227098541Y-55999500D01*
X218901459Y-55999500D01*
X218901455Y-55999500D01*
X218804812Y-56018724D01*
X218708167Y-56037947D01*
X218708161Y-56037949D01*
X218654834Y-56060037D01*
X218654834Y-56060038D01*
X218614706Y-56076660D01*
X218526089Y-56113366D01*
X218526079Y-56113371D01*
X218362219Y-56222859D01*
X218292540Y-56292538D01*
X218222861Y-56362218D01*
X218222858Y-56362221D01*
X214181899Y-60403181D01*
X214120576Y-60436666D01*
X214094218Y-60439500D01*
X202954141Y-60439500D01*
X202887102Y-60419815D01*
X202841347Y-60367011D01*
X202837969Y-60358859D01*
X202833796Y-60347669D01*
X202833793Y-60347665D01*
X202833793Y-60347664D01*
X202747547Y-60232455D01*
X202747544Y-60232452D01*
X202632335Y-60146206D01*
X202632332Y-60146205D01*
X202632331Y-60146204D01*
X202621161Y-60142038D01*
X202565231Y-60100166D01*
X202540816Y-60034701D01*
X202540500Y-60025858D01*
X202540500Y-58441456D01*
X202502052Y-58248170D01*
X202502051Y-58248169D01*
X202502051Y-58248165D01*
X202502049Y-58248160D01*
X202426635Y-58066092D01*
X202426628Y-58066079D01*
X202317139Y-57902218D01*
X202317136Y-57902214D01*
X202174686Y-57759764D01*
X202174655Y-57759735D01*
X200781479Y-56366559D01*
X200781459Y-56366537D01*
X200637785Y-56222863D01*
X200637781Y-56222860D01*
X200473920Y-56113371D01*
X200473911Y-56113366D01*
X200385296Y-56076661D01*
X200345165Y-56060038D01*
X200291836Y-56037949D01*
X200291832Y-56037948D01*
X200291828Y-56037946D01*
X200195188Y-56018724D01*
X200098544Y-55999500D01*
X200098541Y-55999500D01*
X164901459Y-55999500D01*
X164901455Y-55999500D01*
X164804812Y-56018724D01*
X164708167Y-56037947D01*
X164708161Y-56037949D01*
X164654834Y-56060037D01*
X164654834Y-56060038D01*
X164614706Y-56076660D01*
X164526089Y-56113366D01*
X164526079Y-56113371D01*
X164362219Y-56222859D01*
X164292540Y-56292538D01*
X164222861Y-56362218D01*
X164222858Y-56362221D01*
X159362221Y-61222858D01*
X159362218Y-61222861D01*
X159292538Y-61292540D01*
X159222859Y-61362219D01*
X159113371Y-61526079D01*
X159113364Y-61526092D01*
X159037950Y-61708160D01*
X159037947Y-61708170D01*
X158999500Y-61901456D01*
X158999500Y-61901459D01*
X158999500Y-103098541D01*
X158999500Y-103098543D01*
X158999499Y-103098543D01*
X156756051Y-103098543D01*
X156979820Y-53810000D01*
X157919457Y-53810000D01*
X157939612Y-54168902D01*
X157939613Y-54168907D01*
X157999827Y-54523300D01*
X158099341Y-54868724D01*
X158236906Y-55200833D01*
X158410789Y-55515452D01*
X158618806Y-55808623D01*
X158858339Y-56076661D01*
X159126377Y-56316194D01*
X159419548Y-56524211D01*
X159734167Y-56698094D01*
X160066276Y-56835659D01*
X160411700Y-56935173D01*
X160766093Y-56995387D01*
X161125000Y-57015543D01*
X161483907Y-56995387D01*
X161838300Y-56935173D01*
X162183724Y-56835659D01*
X162515833Y-56698094D01*
X162830452Y-56524211D01*
X163123623Y-56316194D01*
X163391661Y-56076661D01*
X163631194Y-55808623D01*
X163839211Y-55515452D01*
X164013094Y-55200833D01*
X164150659Y-54868724D01*
X164250173Y-54523300D01*
X164310387Y-54168907D01*
X164330543Y-53810000D01*
X229039457Y-53810000D01*
X229059612Y-54168902D01*
X229059613Y-54168907D01*
X229119827Y-54523300D01*
X229219341Y-54868724D01*
X229356906Y-55200833D01*
X229530789Y-55515452D01*
X229738806Y-55808623D01*
X229978339Y-56076661D01*
X230246377Y-56316194D01*
X230539548Y-56524211D01*
X230854167Y-56698094D01*
X231186276Y-56835659D01*
X231531700Y-56935173D01*
X231886093Y-56995387D01*
X232245000Y-57015543D01*
X232603907Y-56995387D01*
X232958300Y-56935173D01*
X233303724Y-56835659D01*
X233635833Y-56698094D01*
X233950452Y-56524211D01*
X234243623Y-56316194D01*
X234511661Y-56076661D01*
X234751194Y-55808623D01*
X234959211Y-55515452D01*
X235133094Y-55200833D01*
X235270659Y-54868724D01*
X235370173Y-54523300D01*
X235430387Y-54168907D01*
X235450543Y-53810000D01*
X235430387Y-53451093D01*
X235370173Y-53096700D01*
X235270659Y-52751276D01*
X235133094Y-52419167D01*
X234959211Y-52104548D01*
X234751194Y-51811377D01*
X234511661Y-51543339D01*
X234243623Y-51303806D01*
X234243622Y-51303805D01*
X233950454Y-51095790D01*
X233635831Y-50921905D01*
X233549086Y-50885974D01*
X233303724Y-50784341D01*
X233303720Y-50784339D01*
X233303718Y-50784339D01*
X232958305Y-50684828D01*
X232958296Y-50684826D01*
X232603914Y-50624614D01*
X232603902Y-50624612D01*
X232245000Y-50604457D01*
X231886097Y-50624612D01*
X231886085Y-50624614D01*
X231531703Y-50684826D01*
X231531694Y-50684828D01*
X231186281Y-50784339D01*
X230854168Y-50921905D01*
X230539545Y-51095790D01*
X230246377Y-51303805D01*
X229978339Y-51543339D01*
X229738805Y-51811377D01*
X229530790Y-52104545D01*
X229356905Y-52419168D01*
X229219339Y-52751281D01*
X229119828Y-53096694D01*
X229119826Y-53096703D01*
X229059614Y-53451085D01*
X229059612Y-53451097D01*
X229039457Y-53810000D01*
X164330543Y-53810000D01*
X164310387Y-53451093D01*
X164250173Y-53096700D01*
X164150659Y-52751276D01*
X164013094Y-52419167D01*
X163839211Y-52104548D01*
X163631194Y-51811377D01*
X163391661Y-51543339D01*
X163123623Y-51303806D01*
X163123622Y-51303805D01*
X162830454Y-51095790D01*
X162515831Y-50921905D01*
X162429086Y-50885974D01*
X162183724Y-50784341D01*
X162183720Y-50784339D01*
X162183718Y-50784339D01*
X161838305Y-50684828D01*
X161838296Y-50684826D01*
X161483914Y-50624614D01*
X161483902Y-50624612D01*
X161125000Y-50604457D01*
X160766097Y-50624612D01*
X160766085Y-50624614D01*
X160411703Y-50684826D01*
X160411694Y-50684828D01*
X160066281Y-50784339D01*
X159734168Y-50921905D01*
X159419545Y-51095790D01*
X159126377Y-51303805D01*
X158858339Y-51543339D01*
X158618805Y-51811377D01*
X158410790Y-52104545D01*
X158236905Y-52419168D01*
X158099339Y-52751281D01*
X157999828Y-53096694D01*
X157999826Y-53096703D01*
X157939614Y-53451085D01*
X157939612Y-53451097D01*
X157919457Y-53810000D01*
X156979820Y-53810000D01*
X156999440Y-49488437D01*
X157019429Y-49421488D01*
X157072440Y-49375973D01*
X157123439Y-49365000D01*
X236160599Y-49365000D01*
X236227638Y-49384685D01*
G37*
%TD.AperFunction*%
%TD*%
M02*
