M48
; DRILL file {KiCad 8.0.2} date 2024-05-06T17:22:25+0200
; FORMAT={-:-/ absolute / metric / decimal}
; #@! TF.CreationDate,2024-05-06T17:22:25+02:00
; #@! TF.GenerationSoftware,Kicad,Pcbnew,8.0.2
; #@! TF.FileFunction,MixedPlating,1,2
FMAT,2
METRIC
; #@! TA.AperFunction,Plated,PTH,ComponentDrill
T1C0.800
; #@! TA.AperFunction,Plated,PTH,ComponentDrill
T2C0.900
; #@! TA.AperFunction,Plated,PTH,ComponentDrill
T3C1.000
; #@! TA.AperFunction,Plated,PTH,ComponentDrill
T4C1.100
; #@! TA.AperFunction,Plated,PTH,ComponentDrill
T5C2.700
%
G90
G05
T1
X168.92Y-63.0
X168.92Y-73.0
X168.92Y-82.0
X168.92Y-91.0
X168.92Y-100.0
X179.08Y-63.0
X179.08Y-73.0
X179.08Y-82.0
X179.08Y-91.0
X179.08Y-100.0
X183.35Y-109.69
X193.51Y-109.69
X208.84Y-105.88
X219.0Y-105.88
X219.92Y-63.0
X219.92Y-83.0
X230.08Y-63.0
X230.08Y-83.0
T2
X170.015Y-109.69
X172.555Y-109.69
X226.525Y-105.88
X229.065Y-105.88
T3
X187.0Y-77.0
X187.0Y-79.54
X187.0Y-82.08
X187.0Y-84.62
X187.0Y-87.16
X187.0Y-89.7
X199.0Y-61.44
X199.0Y-63.98
X199.0Y-66.52
X199.0Y-69.06
X199.0Y-71.6
X199.0Y-74.14
X199.0Y-76.68
X199.0Y-79.22
X199.0Y-81.76
X199.0Y-84.3
X199.0Y-86.84
X199.0Y-89.38
X199.0Y-91.92
X199.0Y-94.46
X199.0Y-97.0
X199.0Y-99.54
X199.0Y-102.08
X199.0Y-104.62
X199.0Y-107.16
X199.0Y-109.7
X201.54Y-61.44
X201.54Y-63.98
X201.54Y-66.52
X201.54Y-69.06
X201.54Y-71.6
X201.54Y-74.14
X201.54Y-76.68
X201.54Y-79.22
X201.54Y-81.76
X201.54Y-84.3
X201.54Y-86.84
X201.54Y-89.38
X201.54Y-91.92
X201.54Y-94.46
X201.54Y-97.0
X201.54Y-99.54
X201.54Y-102.08
X201.54Y-104.62
X201.54Y-107.16
X201.54Y-109.7
T4
X215.244Y-70.55
X215.244Y-75.55
X215.244Y-89.55
X215.244Y-94.55
X220.244Y-70.55
X220.244Y-75.55
X220.244Y-89.55
X220.244Y-94.55
T5
X161.125Y-53.81
X161.125Y-116.675
X232.245Y-53.81
X232.245Y-116.04
M30
